<?xml version="1.0" standalone="no"?>
<!DOCTYPE svg PUBLIC "-//W3C//DTD SVG 1.1//EN" "http://www.w3.org/Graphics/SVG/1.1/DTD/svg11.dtd" >
<!--
2013-9-30: Created.
-->
<svg>
<metadata>
Created by iconfont
</metadata>
<defs>

<font id="iconfont" horiz-adv-x="1024" >
  <font-face
    font-family="iconfont"
    font-weight="500"
    font-stretch="normal"
    units-per-em="1024"
    ascent="896"
    descent="-128"
  />
    <missing-glyph />
    
    <glyph glyph-name="dribbble" unicode="&#58880;" d="M544.060-63.267h-64.949c-228.634 0-415.697 187.064-415.697 415.697v64.949c0 228.634 187.064 415.697 415.697 415.697h64.949c228.634 0 415.697-187.064 415.697-415.697v-64.949c-0.001-228.634-187.065-415.697-415.697-415.697zM509.717 632.246c-135.989 0-246.25-110.285-246.25-246.313 0-136.070 110.26-246.315 246.25-246.315 136.007 0 246.247 110.245 246.247 246.315 0 136.029-110.24 246.313-246.247 246.313zM665.966 518.768c27.709-32.538 45.326-73.865 48.338-119.18-44.33 2.36-97.424 2.314-140.105-1.714-5.345 13.631-10.896 26.984-16.864 39.784 49.217 21.285 87.073 49.259 108.632 81.11zM509.717 591.157c49.771 0 95.395-17.727 130.919-47.223-22.309-28.251-57.229-52.774-100.874-71.293-23.875 44.071-51.272 82.052-80.514 112.020 16.183 4.116 33.015 6.496 50.469 6.496zM416.879 568.798c29.638-29.452 57.478-67.114 81.812-111.035-46.345-14.103-99.45-22.248-156.057-22.248-10.718 0-21.25 0.403-31.695 1.008 14.71 57.81 53.895 105.783 105.94 132.276zM304.86 395.732c11.668-0.516 23.466-0.729 35.445-0.604 64.596 0.816 124.845 10.85 176.482 27.437 4.825-10.139 9.451-20.532 13.865-31.208-7.050-1.629-13.311-3.431-18.346-5.531-70.696-29.623-126.321-77.489-156.495-135.364-31.836 36.182-51.305 83.491-51.305 135.471 0 3.28 0.205 6.539 0.353 9.799zM509.717 180.666c-47.44 0-90.995 16.228-125.757 43.281 27.303 54.102 76.036 98.859 137.509 126.727 5.83 2.658 13.493 4.844 22.311 6.774 7.274-20.323 13.896-41.371 19.588-63.107 8.914-34.040 15.128-67.563 18.984-100.21-22.596-8.597-47.018-13.465-72.635-13.465zM620.62 213.378c-3.859 32.968-10.139 66.815-19.129 101.197-4.36 16.679-9.384 32.839-14.711 48.658 40.236 3.301 88.521 2.788 126.814 0-6.952-62.934-42.292-117.165-92.974-149.855z"  horiz-adv-x="1024" />

    
    <glyph glyph-name="shetuwang" unicode="&#58905;" d="M0.002613 892.864245h1020.864245v-1020.864245H0.002613zM483.380132 449.319148c-55.8719-22.957535-82.647468-87.072914-59.689933-142.946516 22.957535-55.875303 87.074616-82.644065 142.948218-59.688231 55.875303 22.957535 82.649169 87.072914 59.691634 142.948217-22.957535 55.875303-87.086526 82.638961-142.949919 59.68653zM662.832753 625.089852l-94.751515-38.932359-57.062908 32.62512a11.756953 11.756953 0 0 1-10.322639 0.665263l-154.681351-63.553904a11.743342 11.743342 0 0 1-6.946981-8.049514l-15.534151-62.16723-102.263374-42.015369c-22.082995-9.073782-32.652343-34.387812-23.585367-56.455495l120.618514-293.568229c9.068677-22.069384 34.382708-32.640433 56.465702-23.566651l441.564621 181.426292c22.082995 9.073782 32.652343 34.387812 23.583666 56.457196l-120.618514 293.568229c-9.063573 22.055772-34.381006 32.640433-56.465703 23.566651z m-87.246461-400.18559c-67.889174-27.891713-145.796429 4.639828-173.691544 72.530704-27.895116 67.887472 4.636425 145.79813 72.525599 173.691544 67.889174 27.895116 145.799832-4.636425 173.694947-72.525599 27.893414-67.890875-4.639828-145.79813-72.529002-173.696649z m78.730752 288.537071c-8.803253-3.615561-18.88769 0.593803-22.506654 9.398757-3.617262 8.803253 0.595504 18.889391 9.397056 22.506653 8.803253 3.615561 18.892794-0.592101 22.508355-9.395354 3.620665-8.808357-0.595504-18.892794-9.398757-22.510056z m0 0"  horiz-adv-x="1024" />

    
    <glyph glyph-name="huabanwang" unicode="&#58915;" d="M0.85072 892.864245h1020.864246v-1020.864245H0.85072zM340.619863 243.499305c0 0.137817-0.044237 0.204173-0.044238 0.343691-1.325422 49.317952-8.845789 150.732307 19.724799 236.969814 49.848801 150.480494 169.722084 187.643355 169.722084 187.643355s-67.628853 21.75802-155.851942 27.587155c-70.029586 4.616008-164.354039-10.24097-164.354039-10.24097s-24.456504-260.347606 125.613942-436.659368c1.48876-1.757588 3.293989-3.678514 5.189394-5.643677zM357.624058 231.204696s229.059818-35.611148 365.072964 99.740138c136.011445 135.347883 99.306271 354.857516 99.306271 354.857516s-240.668746 31.60936-364.155888-91.28568c-123.488843-122.893339-100.223347-363.311973-100.223347-363.311974zM358.753815 224.712c0.187158-0.170144 0.355601-0.348795 0.539356-0.520641 0.632936-0.076565 1.007253-0.095281 1.007253-0.095281-5.507563 5.505861-13.393739 12.844174-19.700979 19.401525M380.047341 204.350862h0.501925c-0.983433 0.845616-2.011103 1.597653-2.994535 2.446672-7.426787 6.373596-10.215448 10.215448-17.254307 17.300246 0 0-0.010209-0.326677 0.01191-0.889854M832.542015 254.56207c-6.94528 72.794426-27.495277 147.16779-27.495277 147.16779s-40.659321-107.170328-168.265651-157.886864c-92.864618-36.934868-203.759399-40.819257-256.235224-39.495537 175.780913-148.925378 441.479549-130.733577 441.479549-130.733576s17.693279 105.729208 10.516603 180.948187z"  horiz-adv-x="1024" />

    
    <glyph glyph-name="gongju" unicode="&#59206;" d="M264.192 542.208l137.728-137.216 66.048 64.512-137.728 136.704 32.768 32.256-184.32 179.2-132.096-128 184.832-179.2 32.768 31.744z m237.056-367.616c0 0.512 0 0.512 0 0z m190.976 160.768s-112.64-29.696-190.976-160.768c5.12-1.024 208.384-206.848 208.384-206.848 36.352-35.328 95.744-35.328 132.096 0l52.736 51.2c36.352 35.328 36.352 92.672 0 128l-202.24 188.416z m91.648-332.288c-9.216-8.704-24.064-8.704-32.768 0l-169.472 164.352c-9.216 8.704-9.216 23.04 0 31.744 9.216 8.704 24.064 8.704 32.768 0l169.472-164.352c8.704-8.192 8.704-22.528 0-31.744z m74.24 72.192c-9.216-8.704-24.064-8.704-32.768 0L655.36 239.616c-9.216 8.704-9.216 23.04 0 31.744 9.216 8.704 24.064 8.704 32.768 0l169.472-164.352c9.728-8.192 9.728-22.528 0.512-31.744zM977.408 633.344c0 2.048 0 4.096-0.512 6.144H885.76l-36.352-36.352-27.648-27.648-28.16-28.16-75.776 19.968-20.48 75.776 28.16 28.16 27.648 27.648 36.352 36.352V826.368c-2.048 0-5.12 0.512-7.168 0.512-54.784 2.048-111.104-17.408-153.6-59.392-35.84-35.84-55.808-81.408-59.392-128-2.048-28.16 1.024-56.32 10.24-82.944 0-0.512 0.512-1.024 0.512-2.048 2.56-9.216 3.072-20.48-8.192-32.256-14.848-14.336-453.632-431.104-453.632-431.104-36.352-31.232-33.792-89.088 0-123.392 34.304-33.792 91.648-35.84 123.392 0.512 0 0 413.184 437.248 431.104 455.168 9.216 9.216 18.944 10.752 26.624 9.728 5.12-1.536 9.216-3.072 14.336-5.12 24.576-7.68 51.2-10.24 76.288-8.192 46.592 4.096 92.672 23.552 128 59.392 41.984 41.472 61.952 98.304 59.392 154.112zM201.728 9.728c-11.776-11.776-29.696-11.776-41.472 0s-11.776 29.696 0 41.472 29.696 11.776 41.472 0c10.752-11.776 10.752-29.696 0-41.472z"  horiz-adv-x="1024" />

    
    <glyph glyph-name="baidudisk" unicode="&#59037;" d="M468.95104 690.33984c32.256 5.38624 65.83296 3.26656 96.9728-6.85056 37.81632-12.19584 71.8848-35.77856 96.50176-66.99008 33.0752-41.41056 49.12128-96.27648 42.3424-148.95104-8.67328 0.6656-17.33632-0.1536-25.82528-1.95584-17.69472-1.97632-34.82624-7.36256-51.34336-13.83424-5.80608-2.14016-10.99776-5.57056-16.70144-7.92576-5.35552-2.19136-10.09664-5.56032-15.08352-8.448-5.51936-3.18464-10.31168-7.48544-15.9744-10.43456 13.39392 15.0016 21.9648 34.26304 24.20736 54.25152 2.72384 22.29248-2.41664 45.43488-14.2336 64.52224-17.47968 28.76416-50.176 47.62624-83.88608 47.94368-24.54528 0.60416-49.152-8.2944-67.67616-24.39168-18.93376-16.16896-31.47776-39.60832-34.32448-64.3584-2.92864-24.17664 3.2256-49.41824 17.27488-69.34528 3.64544-5.2224 7.87456-9.99424 12.09344-14.75584-26.92096 22.76352-59.4432 39.168-94.19776 45.62944-12.20608 2.36544-24.63744 3.55328-37.07904 3.6352-3.82976 34.2528 1.15712 69.49888 14.6432 101.23264 13.47584 31.95904 35.33824 60.30336 62.74048 81.54112 26.05056 20.16256 57.05728 33.95584 89.5488 39.48544zM440.07424 412.75392c3.71712-2.51904 7.24992-5.30432 11.10016-7.6288 17.75616-10.92608 38.97344-16.3328 59.79136-14.6944 17.2544 1.03424 33.8944 7.08608 48.49664 16.18944-2.90816-4.94592-7.56736-8.43776-11.01824-12.9536-18.69824-20.81792-36.97664-42.02496-55.81824-62.72-5.91872 15.4624-12.75904 30.65856-21.90336 44.51328-8.62208 13.66016-19.4048 25.76384-30.64832 37.29408zM214.6304 449.01376c27.22816 12.78976 57.33376 19.2512 87.38816 19.06688 12.4416-0.08192 24.87296-1.26976 37.07904-3.6352 34.75456-6.46144 67.2768-22.86592 94.19776-45.62944 2.19136-2.08896 4.44416-4.11648 6.77888-6.06208 11.24352-11.53024 22.02624-23.63392 30.64832-37.29408 9.14432-13.85472 15.98464-29.05088 21.90336-44.51328-23.51104-27.74016-48.0256-54.62016-71.96672-81.99168-13.89568-15.45216-27.27936-31.36512-41.50272-46.52032 9.75872 13.62944 16.9472 29.26592 19.44576 45.91616 3.90144 23.57248-0.52224 48.49664-12.65664 69.10976-7.4752 12.8-17.93024 23.808-30.16704 32.1536-18.2784 12.3904-40.88832 18.09408-62.8736 16.24064-13.95712-0.96256-27.41248-5.45792-39.936-11.49952 10.56768 8.26368 18.08384 20.56192 19.78368 33.9456 2.46784 16.76288-4.23936 34.53952-17.152 45.5168-14.04928 12.47232-35.23584 15.96416-52.61312 8.89856 3.59424 2.59072 7.66976 4.38272 11.64288 6.2976zM678.94272 465.59232c8.48896 1.80224 17.152 2.62144 25.82528 1.95584 20.35712 0.44032 40.64256-3.10272 60.16-8.76544 36.23936-10.81344 69.02784-32.41984 93.87008-60.86656 28.86656-32.96256 46.58176-75.65312 49.0496-119.43936 0.34816-10.56768 1.32096-21.54496-2.52928-31.6416-5.28384-15.02208-18.16576-26.97216-33.44384-31.3344-23.76704-7.71072-51.94752 6.12352-60.94848 29.31712-2.92864 6.73792-3.95264 14.12096-3.8912 21.41184-0.21504 17.96096-5.03808 35.90144-14.42816 51.2512-11.38688 18.7392-28.86656 33.80224-49.29536 41.87136-16.15872 6.2976-33.92512 8.57088-51.10784 6.07232-20.31616-2.816-39.71072-11.9808-54.66112-26.03008-4.47488-4.07552-8.40704-8.69376-12.40064-13.23008C569.97888 263.92575999999997 514.7648 201.72799999999995 459.55072 139.53024000000005c-9.68704-11.13088-19.712-22.05696-31.2832-31.27296-32.9216-26.85952-74.47552-43.19232-116.97152-45.13792-11.9296 0.08192-23.92064-0.53248-35.76832 1.10592-39.0144 4.64896-76.4928 21.08416-106.43456 46.51008-32.2048 27.10528-55.47008 64.57344-65.67936 105.40032-5.85728 22.36416-6.49216 45.69088-4.98688 68.63872 3.75808 40.2944 20.08064 79.32928 46.21312 110.2336 16.27136 19.31264 35.9424 35.9424 58.34752 47.70816 17.37728 7.0656 38.56384 3.57376 52.61312-8.89856 12.91264-10.97728 19.61984-28.75392 17.152-45.5168-1.69984-13.38368-9.216-25.68192-19.78368-33.9456-12.83072-7.09632-24.27904-16.77312-33.0752-28.53888-12.5952-16.77312-19.68128-37.56032-20.0704-58.53184-0.256-18.11456 4.23936-36.352 13.40416-52.02944 10.88512-19.00544 28.07808-34.34496 48.32256-42.76224 32.91136-13.9264 73.18528-8.81664 101.1712 13.568 6.12352 4.7616 11.52 10.38336 16.4352 16.37376 14.22336 15.1552 27.60704 31.06816 41.50272 46.52032 23.94112 27.37152 48.45568 54.25152 71.96672 81.99168 18.8416 20.69504 37.12 41.90208 55.81824 62.72 3.45088 4.51584 8.11008 8.00768 11.01824 12.9536 7.35232 5.45792 13.86496 11.9296 20.3776 18.3296 5.66272 2.94912 10.45504 7.24992 15.9744 10.43456 4.98688 2.88768 9.728 6.25664 15.08352 8.448 5.70368 2.3552 10.89536 5.7856 16.70144 7.92576 16.51712 6.47168 33.64864 11.85792 51.34336 13.83424zM850.16576 163.44064000000003c7.0144 0.11264 14.22336 0.80896 21.05344-1.20832 13.93664-3.77856 26.03008-13.88544 32.1536-26.97216 6.57408-13.71136 6.46144-30.464-0.4096-44.05248-5.05856-10.3424-13.80352-18.78016-24.27904-23.552-14.75584-6.83008-32.86016-6.0416-46.848 2.31424-10.76224 6.2464-19.06688 16.5888-22.70208 28.49792-5.04832 15.83104-1.66912 34.1504 9.04192 46.90944 7.8848 9.74848 19.53792 16.40448 31.98976 18.06336z"  horiz-adv-x="1024" />

    
    <glyph glyph-name="postman" unicode="&#58925;" d="M194.502457-97.36521L16.036992-103.563411l91.476909 92.973026 86.988556-86.846068v0.071243zM1004.044604 364.008983A471.91826 471.91826 0 1 0 596.103186 892.13852a471.847016 471.847016 0 0 0 407.941418-528.129537M656.304112 558.219305c30.991009-32.985832 0.427462-110.926439 0.427462-110.926439S626.453002 337.078864 453.259571 194.235249l-32.34464 31.703446 219.858054 224.702625 4.274622 5.77074c5.841983 9.546656 10.686555 102.448439 11.256505 101.807245M453.259571 187.395854a7.12437 7.12437 0 0 0-4.773328 1.92358l-32.344639 31.774689a7.12437 7.12437 0 0 0 0 9.689143L635.85717 455.058429l3.633429 4.915816c3.633429 8.050538 7.694319 64.903009 9.047949 83.640102s1.424874 19.44953 5.841984 21.016891a7.12437 7.12437 0 0 0 7.12437-1.781093c32.843345-34.909412 4.417109-111.282657 1.923579-117.765833-2.351042-8.264269-35.621849-116.198472-205.609314-256.477315a7.12437 7.12437 0 0 0-4.559596-1.211143z m-22.655497 38.685328l23.082959-22.655496C619.043657 341.42473 650.10591 448.005303 650.10591 449.073959v0.712437c0 0.641193 19.44953 50.369295 10.900286 84.423783-3.918403-53.860236-6.768151-75.375833-10.40158-81.360304l-4.559597-6.198202-0.56995-0.712437z m214.443533 230.117147zM373.466628 272.674561L655.876649 559.002986c14.24874-17.027244 17.383462-35.621849 13.251328-61.483312-2.778504-18.095899-34.054488-54.287698-34.054488-54.287699l-213.731095-217.364524M420.914931 221.664073a4.274622 4.274622 0 0 0-3.063479 7.12437l213.731096 217.29328c8.691731 10.116605 31.133496 38.614085 33.270807 52.079144 3.84716 23.937883 1.139899 40.038959-9.332924 54.358942L376.530107 269.682326a4.281746 4.281746 0 1 0-6.126958 5.98447l282.410021 286.328425a4.203378 4.203378 0 0 0 3.205967 1.282387 4.274622 4.274622 0 0 0 3.134722-1.496118c14.676202-17.383462 18.737093-36.191799 14.24874-64.90301-2.920992-19.093311-33.769513-54.857648-35.0519-56.353765L423.97841 222.946459a4.274622 4.274622 0 0 0-3.063479-1.282386zM656.304112 558.005574l-282.837484-285.331013 0.56995 0.56995-70.317531 68.9639C450.124848 524.378548 544.73648 558.290549 544.73648 558.290549s61.625799 24.009126 105.511917 5.414521c3.348454-1.781092 4.844572-2.849748 6.055715-5.699496M373.466628 265.835166a7.12437 7.12437 0 0 0-6.411933 4.559597l-68.037732 67.111564a7.12437 7.12437 0 0 0-0.498706 9.119193C444.282864 528.011977 538.467034 563.063876 542.385437 564.702482c2.422286 0.926168 64.546791 24.721563 110.498977 5.272033a17.810925 17.810925 0 0 0 9.689143-9.261681 7.12437 7.12437 0 0 0-1.424874-7.480588L379.379855 268.684914l-0.356218-0.427462-0.56995-0.56995a7.12437 7.12437 0 0 0-4.987059-1.852336z m-60.4859 77.014438l60.913362-60.058438L646.543725 557.863086c-40.395177 16.742269-98.743766-5.699496-99.38496-5.913227s-93.400489-35.408118-234.178037-209.100255zM453.259571 194.235249c-67.467783-55.570085-153.815145-142.914859-271.224761-203.756978l26.360168-111.353901-110.641464 109.002859 275.998089 284.974794M208.394978-128a7.12437 7.12437 0 0 0-4.773327 1.994824l-110.641464 109.002858a7.12437 7.12437 0 0 0 0 9.6179l275.998088 284.974794a7.12437 7.12437 0 0 0 9.83163-9.475412l-271.22476-279.987735 88.555917-87.62975-20.731916 88.627162a7.12437 7.12437 0 0 0 3.490941 7.623075c90.621985 47.020841 163.860507 110.712708 222.137852 161.865683 16.884757 14.747446 32.914589 28.497479 47.94701 41.107615A7.12437 7.12437 0 0 0 457.747924 188.963215c-14.889933-12.253916-30.777278-26.146437-47.590791-40.893883-58.134858-50.796757-130.162237-113.989918-220.071785-161.22449l24.935294-106.438086a7.12437 7.12437 0 0 0-6.625664-8.406756zM305.642627 341.353486l68.536438-68.251463-158.374742-34.339463 88.342186 103.802069 1.496118-1.211143zM215.519348 231.994409a7.12437 7.12437 0 0 0-5.20079 11.256504l88.342187 103.802069a7.12437 7.12437 0 0 0 9.475411 0.854925l1.496118-1.211143 0.498706-0.498706 68.892657-68.108976a7.12437 7.12437 0 0 0-3.348454-11.541479l-158.374742-34.410707z m89.125867 100.73859l-70.531261-83.141396 126.386321 27.35758zM629.30275 640.790752a110.57022 110.57022 0 1 1 122.111699 97.67511 110.57022 110.57022 0 0 1-122.111699-97.67511M739.30302 511.198464a117.409615 117.409615 0 0 0-116.768422 130.233481 117.409615 117.409615 0 1 0 116.768422-130.375969zM635.85717 640.078315a103.730825 103.730825 0 1 1 114.559867 91.619396A103.873313 103.873313 0 0 1 635.85717 640.078315zM833.202215 567.480986c20.375698 29.779866 19.307042 74.378421 15.246152 87.558505-5.058303 16.17232-16.243563 42.746219-35.62185 56.140035l-103.873312-95.466556s79.650455-85.492438 81.787766-85.919901a105.084455 105.084455 0 0 1 42.746219 37.616673M790.242265 523.024918c-3.348454 0.427462-4.63084 0.641193-85.991144 88.057211a7.12437 7.12437 0 0 0 0.356218 9.689143l103.659582 95.466556a7.12437 7.12437 0 0 0 8.549243 0.56995c22.940471-16.029832 34.553194-47.092085 38.471598-59.702219 4.417109-14.24874 5.984471-61.198337-16.101076-93.471733-18.87958-27.072605-43.387412-40.608908-48.944421-40.608908z m-71.599917 92.616808c25.861463-27.713799 62.623211-66.826589 73.309766-77.4419a107.577985 107.577985 0 0 1 35.621849 33.413294c18.950824 27.642555 17.953412 70.175043 14.24874 81.716523-3.205966 10.40158-12.253916 34.838169-28.996186 49.229395z m114.631111-47.875765z m-23.581664 24.436588a7.12437 7.12437 0 0 0-7.12437 7.12437l2.70726 43.5299a7.12437 7.12437 0 0 0 13.108841 2.137311c0.498706-1.139899 11.185261-28.070017-3.27721-49.870589a7.12437 7.12437 0 0 0-5.485765-3.205967zM423.408461 225.867451l-114.41738-20.375698 69.035144 71.813648M308.991081 198.723602a7.12437 7.12437 0 0 0-4.915815 11.541479l69.035144 71.742404a7.12437 7.12437 0 1 0 9.83163-9.475411l-54.501429-56.638741L422.126074 232.635602a7.12437 7.12437 0 0 0 2.422286-13.465059l-114.346136-20.375698zM453.758276 197.15624a7.12437 7.12437 0 0 0-4.702084 1.852337L303.647803 335.938965a7.12437 7.12437 0 1 0 9.332925 9.974118L458.460361 208.982694a7.12437 7.12437 0 0 0-4.702085-11.826454z"  horiz-adv-x="1024" />

    
    <glyph glyph-name="xiongmao" unicode="&#58881;" d="M99.096 580.366s-82.58 64.032-82.58 132.13c0 66.064 33.032 165.162 148.646 148.646 83.37-11.91 99.096-165.162 99.096-165.162l-165.162-115.614zM924.906 580.366s82.58 64.032 82.58 132.13c0 66.064-33.032 165.162-148.646 148.646-83.37-11.91-99.096-165.162-99.096-165.162l165.162-115.614zM1024 334.452c0-264.526-229.23-429.42-512.002-429.42s-511.998 164.892-511.998 429.42 283.96 495.484 512.002 495.484 511.998-230.958 511.998-495.484zM330.324 53.874c0-82.096 81.34-148.646 181.678-148.646s181.678 66.55 181.678 148.646h-363.356zM644.13 284.902c-49.548 82.582-82.58 99.098-132.128 99.098s-82.58-16.516-132.13-99.096c-42.488-70.814-78.73-211.264-49.548-247.742 66.064-82.58 165.162-33.032 181.678-33.032 16.516 0 115.614-49.548 181.678 33.032 29.18 36.476-7.064 176.93-49.55 247.74zM611.098 400.516c0 45.608 36.974 82.58 82.58 82.58 49.548 0 198.194-99.098 198.194-165.162s-79.934-144.904-148.646-99.096c-49.548 33.032-132.128 148.646-132.128 181.678zM412.904 400.516c0 45.608-36.974 82.58-82.58 82.58-49.548 0-198.194-99.098-198.194-165.162s79.934-144.904 148.646-99.096c49.548 33.032 132.128 148.646 132.128 181.678zM512.002 169.378c-30.060 0-115.614-5.668-115.614-33.032 0-49.638 105.484-85.24 115.614-82.58 10.128-2.66 115.614 32.944 115.614 82.58-0.002 27.366-85.556 33.032-115.614 33.032zM297.292 400.516c0-0 0-0 0-0 0-18.243 14.789-33.032 33.032-33.032 18.243 0 33.032 14.789 33.032 33.032 0 0 0 0 0 0 0 0 0 0 0 0 0 18.243-14.789 33.032-33.032 33.032-18.243 0-33.032-14.789-33.032-33.032 0-0 0-0 0-0zM660.646 400.516c-0-0-0-0-0-0 0-18.243 14.789-33.032 33.032-33.032 18.243 0 33.032 14.789 33.032 33.032 0 0 0 0 0 0 0 0 0 0 0 0 0 18.243-14.789 33.032-33.032 33.032-18.243 0-33.032-14.789-33.032-33.032 0-0 0-0 0-0z"  horiz-adv-x="1024" />

    
    <glyph glyph-name="react" unicode="&#58888;" d="M856.210952 511.915129c-17.287475 6.606845-36.207076 12.817627-56.284398 18.475663 5.14446 20.225301 9.22695 39.71941 12.143015 57.981809 16.530169 103.437597-1.680001 176.173821-51.270507 204.803482-14.471514 8.356483-31.062616 12.595658-49.303253 12.595657-43.675683 0-96.822047-24.412248-153.689658-70.599228-14.362706-11.664258-29.204169-24.943233-44.141383-39.501793-14.954624 14.571618-29.796086 27.854945-44.141383 39.506146-56.871963 46.182628-110.02268 70.594876-153.69401 70.594875-18.240637 0-34.831738-4.239174-49.311957-12.595657-49.590506-28.62966-67.796324-101.365885-51.261803-204.79913 2.916065-18.262398 6.998555-37.76086 12.138662-57.986161-20.081674-5.658036-39.005627-11.87317-56.293102-18.480015-97.840494-37.403968-151.726755-89.536238-151.726755-146.799911 0-57.259321 53.886261-109.395943 151.731107-146.799912 17.27877-6.606845 36.207076-12.817627 56.28875-18.480015-5.135755-20.194835-9.218246-39.688944-12.138662-57.977456-16.538873-103.441949 1.666944-176.173821 51.261803-204.807834 14.471514-8.356483 31.062616-12.591306 49.303252-12.591306 43.675683 0 96.822047 24.407895 153.694011 70.594876 14.358354 11.659906 29.199816 24.943233 44.150087 39.510498 14.937214-14.558561 29.778677-27.837535 44.145735-39.506146 56.867611-46.182628 110.013975-70.599228 153.694011-70.599228 18.240637 0 34.827386 4.239174 49.303252 12.595658 49.590506 28.62966 67.796324 101.365885 51.266156 204.803482-2.920417 18.28416-7.002907 37.786974-12.138663 57.981808 20.05556 5.653683 38.979513 11.864466 56.280046 18.475663 97.844846 37.403968 151.731107 89.536238 151.731107 146.799912-0.004352 57.268026-53.890614 109.404648-151.73546 146.804263z m-144.98934 254.089325c11.368299 0 21.365613-2.44166 29.704687-7.255342 41.160033-23.76375 49.098693-107.415631 20.838981-218.609089-41.886873 9.614308-87.24691 16.69991-134.88757 21.069654-27.598157 39.070912-56.414968 74.812289-85.688774 106.288376 64.279638 62.630103 126.165491 98.506401 170.032676 98.506401zM339.392917 264.506639a1274.207042 1274.207042 0 0 1 32.172462-52.680664c-33.321478 3.995444-65.337255 9.440215-95.281321 16.212448 9.100733 29.304272 20.39069 59.753209 33.600027 90.61997a1270.298645 1270.298645 0 0 1 29.508832-54.151754zM276.28841 502.192013c29.95277 6.772233 61.968548 12.221357 95.276969 16.208096a1272.113569 1272.113569 0 0 1-32.176814-52.676312 1271.569527 1271.569527 0 0 1-29.50448-54.151754c-13.19628 30.853704-24.486237 61.298288-33.595675 90.61997z m54.765433-137.06809a1248.502151 1248.502151 0 0 0 42.770397 80.727112 1248.946089 1248.946089 0 0 0 48.554651 77.441098 1251.361635 1251.361635 0 0 0 91.281525 3.294718c30.81018 0 61.515905-1.109845 91.290229-3.29907a1247.53158 1247.53158 0 0 0 48.550299-77.436746 1249.651167 1249.651167 0 0 0 42.774749-80.735817 1247.727435 1247.727435 0 0 0-42.774749-80.740169 1247.414067 1247.414067 0 0 0-48.554651-77.441099c-29.769972-2.189225-60.475697-3.294718-91.285877-3.294718-30.805828 0-61.5072 1.105493-91.277172 3.294718a1250.034173 1250.034173 0 0 0-48.554651 77.441099 1247.422772 1247.422772 0 0 0-42.77475 80.748874z m356.869719-100.617284a1263.047655 1263.047655 0 0 1 29.513185 54.156106c13.209337-30.871113 24.503647-61.324402 33.604379-90.624322-29.944066-6.772233-61.959843-12.217005-95.285673-16.212448a1272.474813 1272.474813 0 0 1 32.168109 52.680664z m0.004352 201.22151a1271.969942 1271.969942 0 0 1-32.168108 52.67196c33.312773-3.991091 65.32855-9.440215 95.28132-16.212449-9.11379-29.326034-20.403747-59.774971-33.604379-90.619969a1268.884136 1268.884136 0 0 1-29.508833 54.160458z m-112.603614 99.089614c-20.712763 1.009742-41.43423 1.523317-61.663884 1.523317-20.225301 0-40.942417-0.513576-61.65518-1.523317 20.12955 26.871317 40.846665 51.866778 61.659532 74.381407 20.817219-22.527687 41.534334-47.518795 61.659532-74.381407zM286.394532 758.744759c8.339074 4.813683 18.332036 7.255343 29.704688 7.255343 43.867186 0 105.761744-35.876298 170.037028-98.510753-29.269454-31.467383-58.086265-67.208759-85.688774-106.284024-47.645013-4.369744-93.005049-11.455346-134.883218-21.065302-28.264064 111.193458-20.329757 194.840987 20.830276 218.604736z m-227.265883-393.629541c0 47.58408 68.470936 96.299767 178.889678 127.405906 12.61742-41.103453 29.16935-83.952192 49.216206-127.405906-20.042503-43.453714-36.594434-86.302453-49.216206-127.405906-110.418742 31.106139-178.889679 79.821826-178.889678 127.405906z m256.966218-400.884884c-11.368299 0-21.361261 2.44166-29.700335 7.255342-41.164386 23.76375-49.098693 107.415631-20.83898 218.609089 41.895578-9.618661 87.259967-16.704262 134.891922-21.069654 27.593805-39.062208 56.410616-74.807936 85.688774-106.279672-64.279638-62.638807-126.169843-98.515106-170.041381-98.515105z m135.914722 201.182339c20.712763-1.009742 41.425526-1.52767 61.650827-1.52767 20.229654 0 40.946769 0.513576 61.659532 1.52767-20.112141-26.849555-40.829256-51.845016-61.65518-74.381408-20.821571 22.527687-41.534334 47.518795-61.655179 74.381408z m288.912358-193.926997c-8.339074-4.813683-18.332036-7.255343-29.700335-7.255342-43.867186 0-105.757391 35.876298-170.037029 98.515105 29.278158 31.471735 58.094969 67.217464 85.688774 106.279672 47.645013 4.365392 93.009402 11.455346 134.891923 21.074007 28.264064-111.202163 20.325405-194.849691-20.843333-218.613442z m48.389262 266.223636c-12.626124 41.125215-29.182407 83.973954-49.22491 127.405906 20.051208 43.466771 36.603138 86.31551 49.220558 127.401554 110.401333-31.106139 178.880974-79.826179 178.880973-127.405906-0.004352-47.571023-68.479641-96.291062-178.876621-127.401554zM511.941243 365.197912m-88.439449 0a88.43945 88.43945 0 1 1 176.878899 0 88.43945 88.43945 0 1 1-176.878899 0Z"  horiz-adv-x="1024" />

    
    <glyph glyph-name="douban" unicode="&#58954;" d="M513.536 875.52c-271.872 0-492.032-220.16-492.032-492.032s220.16-492.032 492.032-492.032c271.872 0 492.032 220.16 492.032 492.032s-220.16 492.032-492.032 492.032z m-231.936-250.88h465.92v-51.2h-465.92v51.2z m424.96-107.52v-204.8h-384v204.8h384z m-440.32-373.76v51.2h144.384c-13.312 25.6-30.208 56.832-51.2 89.088l51.2 20.48c20.48-30.208 38.4-68.608 54.784-109.568h97.28c19.456 30.72 36.352 69.12 50.688 109.056l55.808-20.48c-14.848-33.792-30.208-63.488-47.104-89.088h135.168v-51.2H266.24zM378.88 465.92h276.48v-102.4h-276.48z"  horiz-adv-x="1024" />

    
    <glyph glyph-name="vuejs" unicode="&#58882;" d="M634.334 800.517l-124.665-256.319-122.334 256.319h-186.996l309.33-553.415 313.99 553.415zM509.087 247.10299999999995l308.748 553.415h168.938l-477.684-833.036-471.859 833.036h166.607l305.252-553.415z"  horiz-adv-x="1024" />

    
    <glyph glyph-name="encrypt" unicode="&#58883;" d="M545.21304594 158.8036227v-62.65074468a29.27604937 29.27604937 0 0 0-33.37469531-26.34844406 29.27604937 29.27604937 0 0 0-33.37469625 26.34844406v62.65074469a77.28876938 77.28876938 0 1 0 67.04215218 0z m348.677745 162.18931219v93.09783563a93.09783562 93.09783562 0 0 1-95.43992063 90.17023125H225.22583A93.09783562 93.09783562 0 0 1 129.78591031 414.09077052v-414.54885469a92.80507594 92.80507594 0 0 1 95.43991969-90.17023125h573.22504031a93.09783562 93.09783562 0 0 1 95.43992063 90.17023125v29.27604937h-125.00872969V78.88000864000003h125.00872969v67.33491281h-125.00872969V195.98420521000003h125.00872969v74.94668531h-125.00872969v50.06204437zM313.05397719 631.61181458A150.47889187 150.47889187 0 0 0 463.24010937 781.50518614h97.19648251a150.47889187 150.47889187 0 0 0 150.47889187-150.47889187v-105.39377719h106.56481875V664.40098958a204.93234375 204.93234375 0 0 1-204.93234375 204.93234375H412.00702344a204.93234375 204.93234375 0 0 1-204.93234375-204.93234375v-137.30466938h105.9792975z"  horiz-adv-x="1024" />

    
    <glyph glyph-name="yahu" unicode="&#58943;" d="M0 384.974178a510.933043 510.933043 0 1 1 1021.866087 0A510.933043 510.933043 0 1 1 0 385.159735zM874.347739 744.306605a511.025822 511.025822 0 0 0-722.654344-722.654344zM1010.732627 278.371297l-219.700281 231.947087L757.817523 478.495243l-27.276978 28.761439-69.769683-65.872973-60.677358 64.017396-29.50367-27.83365-82.851499 82.851499-38.039323-37.946543-36.276524 36.276524-34.792063-34.792063 36.276524-36.183745-27.83365-27.833651-93.335508 93.428287-19.483555-19.205219L250.502854 557.357253l-34.792063-34.792063 274.903688-274.71813-49.172783-49.172783-18.555767 18.555767-15.494065-15.494065-15.494066 15.494065-24.029718-24.029718 295.964483-295.964483a512.046389 512.046389 0 0 1 346.900064 381.135454zM707.995289 469.21736C693.057896 465.135091 556.023557 358.903325 547.395125 332.832473a1020.567183 1020.567183 0 0 1 2.133914-109.386247c9.277883-2.041134 74.223068 0 86.191537-2.226692l-1.391682-26.998641c-11.782912 0.927788-94.541633 0.649452-141.76606 0.649452-24.029718 0-101.221709-2.597807-124.880312-1.948355l4.082269 25.792516c12.989037 0.927788 66.800761-2.41225 78.583673 10.205672 5.937845 6.216182 4.082269 89.16046 2.041135 103.262843-4.917278 14.844614-124.973091 164.867989-156.332337 189.918275h-80.903144v37.853764h272.676996v-2.597807h0.927788l-0.927788-6.40174v-28.761439h-82.202048c37.111534-53.533388 89.16046-118.293014 111.334602-149.373924l110.035698 99.458911h-64.945185l-9.277883 37.760986h238.9055l-1.762798-2.690586h0.835009l-17.071305-24.771949h-0.556673l-6.865634-10.205672h-44.069947z m78.027-236.771587l-21.153575 1.020567-23.473045 2.876144v-40.358793l18.555767-1.57724 20.040228-1.484461 5.845067 39.523783z m41.008245 192.979977c-7.14397 0-71.903597 6.40174-80.346471 8.071758l1.020567-170.620277 37.111534-2.876144z"  horiz-adv-x="1024" />

    
    <glyph glyph-name="xinfeng" unicode="&#58934;" d="M903.6 703.1H120.3L512 423.2z m55.1-0.1v0.1zM512 344.9l-446.7 319v-599h893.4v599z"  horiz-adv-x="1024" />

    
    <glyph glyph-name="pixiv" unicode="&#58884;" d="M701.515 594.848c-44.44 46.092-100.245 64.919-163.08 65.107-29.552 0.089-58.595-4.617-87.095-12.455-28.961-7.965-56.673-18.839-81.996-35.306-3.347-2.176-4.69-4.686-4.695-8.694-0.034-29.713-0.333-59.424-0.426-89.137-0.085-27.263-0.018-54.527-0.021-81.79-0.004-56.836 0.053-113.674-0.097-170.51-0.015-5.326 1.57-8.393 6.639-10.576 17.881-7.7 36.245-13.85 55.161-18.37 30.808-7.36 62.082-10.876 93.715-12.36 33.75-1.583 66.83 1.28 98.832 12.378 61.328 21.265 105.46 61.217 129.447 121.99 15.492 39.25 17.417 80.058 10.877 121.393-7.146 45.173-25.384 85.268-57.26 118.33zM512 878.518C238.886 878.518 17.482 657.114 17.482 384S238.886-110.518 512-110.518 1006.518 110.886 1006.518 384 785.114 878.518 512 878.518z m327.127-530.516c-18.962-47.58-50.687-84.816-92.709-113.517-43.734-29.872-92.452-46.554-144.647-53.74-66.355-9.136-131.115-0.236-195.108 17.307-12.485 3.423-24.767 7.483-37.009 11.676-4.732 1.62-5.413 1.201-5.42-3.878-0.049-33.583 0.004-67.165-0.069-100.748-0.008-3.782 1.314-5.86 5.093-7.004 7.233-2.187 14.26-5.003 20.384-9.602 3.594-2.699 6.19-5.968 5.824-10.873-0.43-5.752-3.64-8.957-9.432-8.968-19.872-0.039-39.744-0.014-59.617-0.014-19.41-0.006-38.82 0.103-58.23-0.082-4.736-0.045-8.025 1.288-9.814 5.842-1.798 4.575-0.752 8.45 2.566 11.847 5.698 5.833 13.181 8.404 20.593 11 7.625 2.668 7.8 0.933 7.8 10.86-0.02 151.738-0.02 303.476-0.076 455.215-0.001 2.353 1.227 5.726-1.09 6.829-2.297 1.094-4.167-1.976-6-3.442-22.584-18.058-43.474-37.783-60.052-61.694-0.527-0.76-1.03-1.537-1.588-2.273-5.878-7.727-9.827-15.6-5.76-25.855 1.946-4.91 1.707-10.59 0.282-15.968-0.937-3.532-2.436-6.64-5.44-8.865-5.016-3.718-8.469-3.16-11.788 2.085-12.847 20.308-25.59 40.682-38.532 60.928-2.117 3.313-1.999 5.634 0.715 8.492 17.758 18.692 37.058 35.675 57.256 51.635 51.148 40.413 106.911 72.725 168.335 94.902 40.036 14.455 81.234 23.72 123.709 27.312 49.596 4.194 98.488 0.765 146.365-13.295 50.8-14.919 95.584-40.146 131.966-79.103 36.324-38.896 58.162-84.856 65.163-137.62 5.425-40.866 1.694-80.839-13.67-119.389z"  horiz-adv-x="1024" />

    
    <glyph glyph-name="boshimao" unicode="&#59235;" d="M974.41254515 538.00309818L623.79355202 701.7995029a86.07919135 86.07919135 0 0 1-72.85988758 0L200.31467132 538.00309818a24.59405504 24.59405504 0 0 1 1e-8-44.57672436l350.61899311-163.7964047a84.84948905 84.84948905 0 0 1 72.30652082 0l256.17782317 119.89601717v-253.74916027c0-9.2227708 8.60791933-15.67870965 17.79994712-15.67870966h5.47217728a15.89390802 15.89390802 0 0 1 16.69321486 15.67870967V467.72558652l55.02919746 25.70078731a24.59405504 24.59405504 0 0 1 0 44.57672435zM587.36360791 272.32582177999996a134.56022226 134.56022226 0 0 0-56.87375121 12.69668063l-195.21531001 91.42839857v-193.03258718c0-69.20152174 112.45631545-125.27596676 252.08906122-125.27596675s252.08906123 56.07444501 252.08906125 125.27596675v193.03258718l-195.21530938-91.36691323a134.56022226 134.56022226 0 0 0-56.87375187-12.75816597z"  horiz-adv-x="1260" />

    
    <glyph glyph-name="jianshu" unicode="&#59018;" d="M666.988089 896H356.989156C254.179556 896 202.820267 896 147.478756 878.478222a217.315556 217.315556 0 0 1-129.934223-129.979733C0 693.134222 0 641.774933 0 538.988089V229.034667c0-102.877867 0-154.2144 17.521778-209.555911a217.383822 217.383822 0 0 1 129.979733-129.956978c55.318756-17.521778 106.7008-17.521778 209.487645-17.521778H666.965333c102.855111 0 154.168889 0 209.5104 17.521778a217.474844 217.474844 0 0 1 130.002489 129.956978c17.521778 55.318756 17.521778 106.7008 17.521778 209.533155V538.988089c0 102.786844 0 154.168889-17.521778 209.5104A217.543111 217.543111 0 0 1 876.475733 878.500978C821.202489 896 769.820444 896 666.988089 896zM213.4016 443.346489h76.617956V42.66666699999996H213.4016zM256.591644 565.0432000000001c19.205689-35.612444 31.675733-71.224889 37.410134-106.837333h83.467378c-11.514311 45.511111-25.895822 81.123556-43.144534 106.837333h-77.732978zM421.364622 636.2680889999999h92.114489V686.739911h-166.934755c1.911467 3.959467 4.801422 10.8544 8.624355 20.775822 1.934222 7.896178 3.868444 13.812622 5.757156 17.8176h-86.334578c-13.425778-53.430044-44.100267-93.047467-92.091733-118.738489v-50.449066c63.305956 15.815111 108.407467 42.530133 135.259022 80.122311h28.785778c9.580089-25.713778 15.36-50.471822 17.294222-74.205867h80.577422c-5.825422 27.693511-13.471289 52.4288-23.051378 74.205867zM383.931733 475.977956h346.885689v-326.496712c1.934222-29.673244-11.491556-43.508622-40.300089-41.528888h-47.581866v-59.369245h69.085866c67.151644-1.956978 99.760356 28.717511 97.826134 92.023467V535.369956H383.931733v-59.392zM654.472533 422.570667H372.417422V122.76622199999997h195.720534c61.394489-1.956978 90.180267 27.739022 86.334577 89.042489v210.761956z m-204.322133-53.407289h126.611911v-68.266667h-126.611911v68.266667z m89.201778-192.944356h-89.201778V250.424889h126.611911v-35.6352c1.911467-27.716267-10.535822-40.5504-37.410133-38.570667zM657.362489 689.698133c0 1.956978 0.955733 4.9152 2.889955 8.920178l8.624356 26.715022H582.542222c-13.448533-55.409778-43.167289-96.961422-89.247289-124.654933v-47.490844c59.483022 15.837867 104.607289 43.508622 135.281778 83.103288h40.300089c9.602844-25.713778 15.337244-50.471822 17.294222-74.205866h77.664711c-1.911467 19.751822-9.580089 44.509867-23.028622 74.205866h100.738845V689.698133h-184.183467z"  horiz-adv-x="1024" />

    
    <glyph glyph-name="quxian" unicode="&#58910;" d="M967.111111-71.111111H56.888889V839.111111h113.777778v-796.444444h796.444444zM284.444444 156.444444v113.777778c284.444444 0 512 227.555556 512 512h113.777778c0-347.022222-278.755556-625.777778-625.777778-625.777778z"  horiz-adv-x="1024" />

    
    <glyph glyph-name="codepen" unicode="&#59207;" d="M512-85.333333c-8.064 0-16.170667 2.304-23.253333 6.869333l-426.666667 277.333333A42.666667 42.666667 0 0 0 42.666667 234.666667v298.666666c0 14.421333 7.296 27.904 19.413333 35.754667l426.666667 277.333333a42.581333 42.581333 0 0 0 46.506666 0l426.666667-277.333333c12.117333-7.850667 19.413333-21.333333 19.413333-35.754667v-298.666666a42.666667 42.666667 0 0 0-19.413333-35.797334l-426.666667-277.333333A42.965333 42.965333 0 0 0 512-85.333333z m-384 343.168l384-249.642667 384 249.642667V510.208l-384 249.6-384-249.6v-252.373333zM512-85.333333a42.666667 42.666667 0 0 0-42.666667 42.666666v277.333334a42.666667 42.666667 0 1 0 85.333334 0V-42.666667a42.666667 42.666667 0 0 0-42.666667-42.666666zM512 192a42.666667 42.666667 0 0 0-24.448 7.722667l-426.666667 298.666666A42.666667 42.666667 0 0 0 109.824 568.32L512 286.762667l402.218667 281.557333a42.709333 42.709333 0 0 0 48.938666-69.930667l-426.666666-298.666666c-7.381333-5.12-15.914667-7.722667-24.490667-7.722667zM938.624 192a42.496 42.496 0 0 0-24.405333 7.722667L512 481.237333 109.781333 199.68a42.624 42.624 0 1 0-48.938666 69.930667l426.666666 298.666666a42.624 42.624 0 0 0 48.896 0l426.666667-298.666666a42.666667 42.666667 0 0 0-24.448-77.610667zM512 490.666667a42.666667 42.666667 0 0 0-42.666667 42.666666V810.666667a42.666667 42.666667 0 0 0 85.333334 0v-277.333334a42.666667 42.666667 0 0 0-42.666667-42.666666z"  horiz-adv-x="1024" />

    
    <glyph glyph-name="twitter" unicode="&#58885;" d="M170.666382 682.667022h682.665529v-639.998933H170.666382zM512.895145-127.99829299999999c-207.402321-0.511999-394.367343 124.415793-473.72721 315.903473S3.285328 599.595161 149.75975 746.026917 516.948472 936.490599 708.009487 856.618732A512.21248 512.21248 0 0 0 1023.998293 383.01952200000005C1023.998293 100.86532499999998 795.604007-127.48629400000004 512.895145-127.99829299999999z m112.639812 738.857435l-15.871973-2.047997c-9.727984-2.047997-19.455968-5.119991-28.671952-8.703985a127.317121 127.317121 0 0 1-72.703879-86.527856c-5.119991-19.967967-5.119991-40.959932 0-60.415899-19.455968 0-38.911935 2.559996-57.343905 7.679987a376.746039 376.746039 0 0 0-156.714405 76.287873 236.159606 236.159606 0 0 0-37.930603 37.375937 104.490493 104.490493 0 0 0-11.775981 13.823977 143.231761 143.231761 0 0 1-13.823977-33.279944 133.375778 133.375778 0 0 1 28.671952-117.247805c6.655989-8.191986 16.895972-13.311978 23.551961-20.479966a33.83461 33.83461 0 0 0-17.407971 1.535998 126.037123 126.037123 0 0 0-27.135955 7.679987l-13.823977 5.119992a123.562461 123.562461 0 0 1 60.4159-110.591816c12.28798-9.215985 26.623956-14.847975 41.98393-16.895972-8.191986-7.167988-44.543926-4.095993-57.343905-2.559996 12.799979-38.911935 43.007928-69.119885 81.450531-82.431862 12.28798-4.607992 25.087958-6.655989 37.887937-6.655989a168.533052 168.533052 0 0 0-34.815942-22.527963 277.162205 277.162205 0 0 0-76.799872-28.159953c-11.77598-2.559996-24.06396-2.047997-37.375938-4.095993a183.039695 183.039695 0 0 0-40.959931 1.535998l11.263981-6.655989c11.77598-7.167988 23.551961-13.311978 36.351939-18.43197 24.575959-10.239983 49.663917-18.431969 75.263875-24.575959 60.415899-12.799979 123.434461-10.751982 182.826362 6.14399 134.186443 41.98393 219.178301 140.287766 251.476914 285.183525 5.119991 27.135955 7.167988 55.295908 6.14399 82.943862l20.479966 16.895971a214.826309 214.826309 0 0 1 43.519927 50.175917 255.572907 255.572907 0 0 0-72.703879-19.967967c5.119991 2.559996 9.727984 6.14399 14.335976 10.239983 19.455968 15.871974 33.791944 36.863939 41.471931 60.415899l-15.871973-8.703985a207.956987 207.956987 0 0 0-66.559889-22.015964 129.279785 129.279785 0 0 1-100.906499 40.447933v-0.511999h-0.554666z"  horiz-adv-x="1024" />

    
    <glyph glyph-name="CDN" unicode="&#58938;" d="M629.76 861.44l220.16-128c79.36-46.08 128-130.56 128-221.44v-254.72c0-90.88-48.64-175.36-128-221.44l-220.16-128c-79.36-46.08-176.64-46.08-256 0L153.6 35.84000000000003C74.24 81.91999999999996 25.6 166.39999999999998 25.6 257.28V512c0 90.88 48.64 175.36 128 221.44l220.16 128c79.36 46.08 177.92 46.08 256 0zM290.56 205.73440000000005L359.68 273.57439999999997c37.12-48.64 81.92-75.52 145.92-78.08 34.56-1.28 69.12 7.68 99.84 25.6 6.4-6.4 21.76-23.04 24.32-25.6-37.12-24.32-80.64-35.84-124.16-34.56-49.92 1.28-97.28 19.2-135.68 51.2 0 1.28-43.52-43.52-44.8-43.52 11.52-34.56-15.36-71.68-53.76-71.68-29.44 1.28-53.76 25.6-53.76 56.32 0 39.68 38.4 65.28 72.96 52.48M698.88 496.64c21.76-35.84 34.56-78.08 33.28-119.04-1.28-51.2-21.76-101.12-56.32-139.52 0 0 26.88-29.44 28.16-29.44 11.52 1.28 21.76-2.56 29.44-10.24 12.8-14.08 12.8-35.84-1.28-48.64s-35.84-12.8-48.64 1.28c-7.68 7.68-10.24 19.2-8.96 30.72-28.16 30.72-51.2 53.76-51.2 53.76 48.64 39.68 72.96 92.16 74.24 143.36 1.28 33.28-7.68 65.28-24.32 94.72l25.6 23.04zM336.64 615.6800000000001c7.68-7.68 10.24-19.2 8.96-30.72l52.48-55.04c-5.12-3.84-15.36-11.52-25.6-24.32-29.44-33.28-46.08-74.24-47.36-117.76-1.28-33.28 6.4-65.28 23.04-94.72l-25.6-24.32c-21.76 35.84-33.28 78.08-32 120.32 1.28 51.2 20.48 101.12 55.04 139.52l-28.16 29.44c-11.52-1.28-23.04 2.56-30.72 10.24-12.8 14.08-12.8 35.84 1.28 48.64s35.84 12.8 48.64-1.28M752.4096 667.1232c29.44 0 53.76-25.6 53.76-55.04s-24.32-55.04-53.76-55.04c-7.68 0-16.64 1.28-17.92 2.56l-72.96-69.12c-37.12 49.92-88.32 75.52-145.92 76.8-34.56 1.28-69.12-7.68-98.56-25.6l-24.32 25.6C429.8496 591.6032 472.0896 603.1232 516.8896 601.8432c49.92-1.28 97.28-19.2 135.68-51.2l47.36 44.8c-2.56 5.12-3.84 11.52-3.84 16.64C696.0896 642.8032000000001 722.9696 667.1232 752.4096 667.1232M576 394.24l-72.96-103.68c-1.28-1.28-1.28-1.28-2.56-1.28H499.2c-1.28 0-2.56 1.28-1.28 2.56l11.52 69.12h-51.2c-1.28 0-2.56 0-2.56 1.28-1.28 1.28 0 2.56 0 3.84l79.36 103.68c1.28 1.28 2.56 1.28 3.84 1.28 1.28 0 1.28-1.28 1.28-2.56l-11.52-69.12h44.8c1.28 0 2.56 0 2.56-1.28v-3.84m-44.8 151.04c-6.4 1.28-12.8 1.28-19.2 1.28-83.2 0-153.6-60.16-163.84-143.36-11.52-89.6 52.48-171.52 142.08-183.04 89.6-11.52 171.52 52.48 183.04 142.08 11.52 89.6-51.2 171.52-142.08 183.04"  horiz-adv-x="1024" />

    
    <glyph glyph-name="youtube" unicode="&#58895;" d="M548.123981-115.107257h-72.248011c-254.327592 0-462.435919 208.108326-462.435918 462.435918v72.248011c0 254.327592 208.108326 462.435919 462.435918 462.435919h72.248011c254.327592 0 462.435919-208.108326 462.435919-462.435919v-72.248011c0.12163-254.449222-207.986697-462.435919-462.435919-462.435918z m0 0M786.031571 515.055945c-12.162965 40.259413-21.650077 62.517639-61.909491 67.382824 0 0-107.885497 5.473334-215.041216 5.473335-106.061052 0-211.392327-5.473334-211.392327-5.473335-42.692006-4.865186-52.908897-28.339708-63.733935-67.382824 0 0-10.946668-62.15275-10.946668-125.156907 0-64.585343 10.946668-130.022093 10.946668-130.022093 8.514075-37.82682 25.907115-62.517639 63.733935-67.382825 0 0 117.007721-7.297779 228.420478-7.297778 101.317496 0 198.013066 7.297779 198.013065 7.297778 37.82682 7.297779 51.084452 27.123411 61.909491 67.382825 0 0 10.946668 59.841786 10.946668 121.508018 0 65.801639-10.946668 133.670982-10.946668 133.670982zM452.523078 279.945837V494.987053L618.425917 387.466445l-165.902839-107.520608z m0 0"  horiz-adv-x="1024" />

    
    <glyph glyph-name="kaifa" unicode="&#58898;" d="M136.533333 827.733333v-750.933333h1092.266667V827.733333H136.533333z m0 68.266667h1092.266667a68.266667 68.266667 0 0 0 68.266667-68.266667v-750.933333a68.266667 68.266667 0 0 0-68.266667-68.266667H136.533333a68.266667 68.266667 0 0 0-68.266666 68.266667V827.733333a68.266667 68.266667 0 0 0 68.266666 68.266667zM68.266667 8.533333v-68.266666h1228.8v68.266666H68.266667z m0 68.266667h1228.8a68.266667 68.266667 0 0 0 68.266666-68.266667v-68.266666a68.266667 68.266667 0 0 0-68.266666-68.266667H68.266667a68.266667 68.266667 0 0 0-68.266667 68.266667v68.266666a68.266667 68.266667 0 0 0 68.266667 68.266667zM473.4976 564.497067v-56.251734l-202.069333-85.742933 202.069333-85.742933v-56.251734l-275.797333 119.057067V445.44l275.797333 119.057067z m418.338133 0l275.797334-119.057067v-45.8752l-275.797334-119.057067v56.251734l202.069334 85.742933-202.069334 85.742933v56.251734zM736.597333 682.325333a34.133333 34.133333 0 1 0 64.512-22.528L635.562667 185.9584a34.133333 34.133333 0 0 0-64.443734 22.528l165.546667 473.9072z"  horiz-adv-x="1365" />

    
    <glyph glyph-name="caijian" unicode="&#58886;" d="M202.666667 618.666667c-17.066667 0-32 14.933333-32 32v192C170.666667 859.733333 185.6 874.666667 202.666667 874.666667s32-14.933333 32-32v-192c0-17.066667-14.933333-32-32-32zM277.333333 693.333333c0-17.066667-14.933333-32-32-32h-192C36.266667 661.333333 21.333333 676.266667 21.333333 693.333333S36.266667 725.333333 53.333333 725.333333h192c17.066667 0 32-14.933333 32-32zM821.333333 149.33333300000004c17.066667 0 32-14.933333 32-32v-192c0-17.066667-14.933333-32-32-32s-32 14.933333-32 32v192c0 17.066667 14.933333 32 32 32zM746.666667 74.66666699999996c0 17.066667 14.933333 32 32 32h192c17.066667 0 32-14.933333 32-32s-14.933333-32-32-32h-192c-17.066667 0-32 14.933333-32 32zM972.8 797.866667l-704-701.866667c-12.8-12.8-32-12.8-44.8 0-12.8 12.8-12.8 32 0 44.8l701.866667 704c12.8 12.8 32 12.8 44.8 0 12.8-12.8 12.8-34.133333 2.133333-46.933333zM789.333333 106.66666699999996H298.666667c-36.266667 0-64 27.733333-64 64V661.333333h416c17.066667 0 32 14.933333 32 32S667.733333 725.333333 650.666667 725.333333H170.666667v-554.666666c0-70.4 57.6-128 128-128h554.666666V522.666667c0 17.066667-14.933333 32-32 32s-32-14.933333-32-32V106.66666699999996z"  horiz-adv-x="1024" />

    
    <glyph glyph-name="telegram" unicode="&#58962;" d="M5.12 384c0-280.064 226.816-506.88 506.88-506.88s506.88 226.816 506.88 506.88-226.816 506.88-506.88 506.88S5.12 664.064 5.12 384zM445.44 244.224l235.52-71.68 85.504 484.864-614.4-321.024L400.896 261.12l163.84 157.184-119.296-174.08z m-3.584-133.12v105.984l57.856-16.896-57.856-89.088z"  horiz-adv-x="1024" />

    
    <glyph glyph-name="mock" unicode="&#58944;" d="M70.5-37.5c-3.3 0-6 2.7-6 6V788.8c0 3.3 2.5 4.9 5.5 3.6l437.5-194.5c3-1.3 8-1.3 11 0L955 791.1c3 1.3 5.5-0.3 5.5-3.6l1-819c0-3.3-2.7-6-6-6h-52.7c-3.3 0-6 2.7-6 6l0.5 716.9c0 3.3-2.4 4.9-5.4 3.5L518.4 514.7c-3-1.4-7.9-1.4-10.9 0L134.4 685.8c-3 1.4-5.4-0.2-5.4-3.5l6.2-713.8c0-3.3-2.6-6-5.9-6H70.5zM225.1 199.70000000000005c178.8-98.2 395.3-98 573.8 0.3-10.3 18.7-20.5 37.3-30.8 56-159.4-87.7-352.7-87.7-512.1 0-10.3-18.7-20.6-37.5-30.9-56.3z"  horiz-adv-x="1024" />

    
    <glyph glyph-name="zhihu" unicode="&#58887;" d="M512-128C229.236364-128 0 101.23636399999998 0 384S229.236364 896 512 896s512-229.236364 512-512-229.236364-512-512-512z m-129.861818 756.48s-36.212364-2.094545-48.989091-24.482909c-12.8-22.365091-54.318545-137.378909-54.318546-137.378909s13.847273-6.376727 37.28291 10.658909c23.435636 17.035636 30.882909 46.848 30.882909 46.848l42.589091 2.117818 1.070545-121.390545s-73.495273 1.070545-88.413091 0c-14.894545-1.047273-23.412364-40.448-23.412364-40.448h111.825455s-9.588364-67.095273-38.353455-116.084364c-28.741818-48.989091-83.060364-87.319273-83.060363-87.319273s39.424-15.965091 77.730909 6.4c38.353455 22.341818 66.629818 120.692364 66.629818 120.692364l89.925818-110.056727s8.192 52.386909-1.466182 67.188363c-9.658182 14.778182-62.208 74.286545-62.208 74.286546l-22.946909-20.247273 16.337455 65.117091h97.954909s0 38.353455-19.153455 40.494545c-19.176727 2.094545-78.801455 0-78.801454 0V524.101818h88.389818s-1.070545 39.400727-18.106182 39.400727h-143.755636l22.341818 64.954182z m169.984-61.184v-358.562909h36.002909l13.102545-45.009455 63.348364 45.009455h89.064727V567.296h-201.518545zM594.781091 527.36h117.899636v-277.876364h-41.890909l-53.364363-40.261818-11.636364 40.261818h-11.008V527.36z"  horiz-adv-x="1024" />

    
    <glyph glyph-name="taobao" unicode="&#58963;" d="M729.965714 474.697143c0 84.845714-70.217143 93.622857-213.577143 40.96l36.571429-4.388572c-2.925714-10.24-10.24-38.034286-23.405714-38.034285h175.542857v-48.274286h-95.085714v-48.274286h95.085714v-23.405714h-95.085714v-96.548571c0 5.851429 32.182857 13.165714 45.348571 21.942857l-8.777143 35.108571 51.2 16.091429 32.182857-80.457143v225.28zM514.925714 426.422857h-19.017143c-24.868571-23.405714-46.811429-46.811429-46.811428-48.274286h65.828571V426.422857zM512 896c-282.331429 0-512-229.668571-512-512s229.668571-512 512-512 512 229.668571 512 512-229.668571 512-512 512z m-193.097143-286.72c30.72 0 55.588571-23.405714 55.588572-51.2s-24.868571-51.2-55.588572-51.2c-30.72 0-55.588571 23.405714-55.588571 51.2 0 29.257143 24.868571 51.2 55.588571 51.2z m49.737143-296.96c-16.091429-48.274286-11.702857-29.257143-73.142857-162.377143l-89.234286 55.588572s99.474286 89.234286 119.954286 130.194285c21.942857 43.885714-23.405714 65.828571-23.405714 65.828572l-68.754286 42.422857 36.571428 57.051428c51.2-38.034286 55.588571-40.96 90.697143-76.068571 26.331429-26.331429 23.405714-62.902857 7.314286-112.64z m459.337143-67.291429c-16.091429-156.525714-217.965714-98.011429-217.965714-98.011428l11.702857 45.348571 39.497143-10.24c49.737143-2.925714 65.828571 20.48 70.217142 40.96l-51.2-21.942857-10.24 40.96c-27.794286-21.942857-84.845714-52.662857-185.782857-49.737143-106.788571-2.925714-80.457143 128.731429-80.457143 128.731429l2.925715 8.777143h76.068571c0-24.868571-7.314286-49.737143 1.462857-62.902857 7.314286-11.702857 21.942857-17.554286 33.645715-17.554286V353.28h-119.954286v23.405714h52.662857l-33.645714 29.257143c23.405714 24.868571 46.811429 64.365714 61.44 90.697143-11.702857-4.388571-23.405714-10.24-36.571429-16.091429-11.702857-16.091429-26.331429-32.182857-42.422857-46.811428 0-1.462857-54.125714 30.72-54.125714 30.72 57.051429 48.274286 87.771429 153.6 87.771428 153.6l78.994286-21.942857s-7.314286-16.091429-20.48-39.497143c314.514286 89.234286 332.068571-55.588571 332.068571-55.588572s20.48-99.474286 4.388572-256z"  horiz-adv-x="1024" />

    
    <glyph glyph-name="fanyi" unicode="&#59032;" d="M128 768v-426.666667h426.666667V768H128zM85.333333 853.333333h512a42.666667 42.666667 0 0 0 42.666667-42.666666v-512a42.666667 42.666667 0 0 0-42.666667-42.666667H85.333333a42.666667 42.666667 0 0 0-42.666666 42.666667V810.666667a42.666667 42.666667 0 0 0 42.666666 42.666666zM469.333333 256v-256h426.666667V426.666667h-256V512h298.666667a42.666667 42.666667 0 0 0 42.666666-42.666667v-512a42.666667 42.666667 0 0 0-42.666666-42.666666H426.666667a42.666667 42.666667 0 0 0-42.666667 42.666666v298.666667h85.333333zM949.333333 554.666667h-93.269333A385.621333 385.621333 0 0 1 682.666667 728.064V821.333333A470.826667 470.826667 0 0 0 949.333333 554.666667zM341.333333-53.333333A470.826667 470.826667 0 0 0 74.666667 213.333333h93.269333A385.621333 385.621333 0 0 1 341.333333 39.936v-93.269333zM213.333333 640h42.666667v-128H213.333333zM426.666667 640h42.666666v-128h-42.666666zM213.333333 640h256v-42.666667H213.333333zM213.333333 554.666667h256v-42.666667H213.333333zM320 682.666667h42.666667v-256h-42.666667zM627.370667 85.333333H583.253333L640 297.258667V298.666667h0.384v0.170666l0.597333-0.170666H725.333333v-0.213334l0.128 0.042667L782.592 85.333333h-44.202667l-11.434666 42.666667h-88.149334l-11.434666-42.666667z m22.869333 85.333334h65.28l-22.869333 85.333333h-19.541334l-22.869333-85.333333z"  horiz-adv-x="1024" />

    
    <glyph glyph-name="less" unicode="&#59046;" d="M640 832l256-256v-608c0-19.2-12.8-32-32-32H160c-19.2 0-32 12.8-32 32V800c0 19.2 12.8 32 32 32h480zM307.2 457.6v-25.6H288c-12.8 0-19.2-6.4-19.2-19.2v-64c0-19.2-9.6-32-28.8-38.4 19.2-6.4 28.8-19.2 28.8-38.4v-64c0-12.8 6.4-19.2 19.2-19.2h19.2v-25.6h-25.6c-12.8 0-25.6 3.2-32 12.8-6.4 9.6-9.6 19.2-9.6 35.2v60.8c0 9.6-3.2 16-6.4 19.2-3.2 6.4-12.8 6.4-22.4 9.6V320c12.8 0 19.2 3.2 22.4 9.6 3.2 3.2 6.4 9.6 6.4 19.2v60.8c0 12.8 3.2 25.6 9.6 35.2 6.4 9.6 19.2 12.8 32 12.8h25.6zM473.6 419.2v-198.4h124.8v-28.8h-160v227.2h35.2zM742.4 457.6c12.8 0 25.6-3.2 32-12.8 6.4-9.6 9.6-19.2 9.6-35.2v-60.8c0-9.6 3.2-16 6.4-19.2 3.2-3.2 12.8-6.4 22.4-6.4v-25.6c-12.8 0-19.2-3.2-25.6-9.6-3.2-3.2-6.4-9.6-6.4-19.2v-60.8c0-12.8-3.2-25.6-9.6-35.2-6.4-9.6-19.2-12.8-32-12.8h-25.6v25.6h22.4c12.8 0 19.2 6.4 19.2 19.2v64c0 19.2 9.6 32 28.8 38.4-19.2 6.4-28.8 19.2-28.8 38.4v64c0 12.8-6.4 19.2-19.2 19.2h-19.2v25.6h25.6zM640 832l256-256h-224c-19.2 0-32 12.8-32 32V832z"  horiz-adv-x="1024" />

    
    <glyph glyph-name="xiaochengxu" unicode="&#58890;" d="M0 384a512 512 0 1 1 1024 0A512 512 0 1 1 0 384zM512 856.615A472.615 472.615 0 1 1 984.615 384 472.615 472.615 0 0 1 512 856.615z m157.538-507.273a39.385 39.385 0 0 0-48.049 19.692c-8.664 18.904 0 32.295 17.33 43.323a120.517 120.517 0 0 0 20.48 11.028c31.507 18.117 57.501 41.747 41.747 78.769a71.68 71.68 0 0 1-84.283 41.748 66.954 66.954 0 0 1-65.378-68.53v-196.135a157.538 157.538 0 0 0-157.539-136.27 157.538 157.538 0 0 0-145.723 166.202c0 45.686 42.535 78.77 98.462 107.126 23.63 7.09 47.261 7.09 59.864-16.541s-11.027-40.96-31.507-50.412c-41.748-18.117-62.228-47.262-42.536-89.797a73.255 73.255 0 0 1 98.462-34.659 69.317 69.317 0 0 1 46.474 74.83v178.02a137.058 137.058 0 0 0 99.249 139.42 163.84 163.84 0 0 0 173.292-44.898 144.148 144.148 0 0 0-78.77-222.916z"  horiz-adv-x="1024" />

    
    <glyph glyph-name="qiantuwang" unicode="&#58889;" d="M0 896h1022.296v-1022.296H0zM229.782 690.39h575.25v-611.075h-48.666v32.432H278.45v-32.432h-48.668V690.39z m48.668-45.958v-489.437h477.916V644.432H278.45z m21.378-159.782c63.07 46.849 112.617 97.296 148.664 151.365l43.244-18.923c-7.209-12.624-16.222-24.334-27.033-35.136H694.45v-40.546c-34.237-41.446-72.97-75.693-116.218-102.717 48.648-19.822 103.606-32.434 164.874-37.834-3.608-9.015-9.02-21.628-16.222-37.847l-5.4-10.812c-75.693 14.412-138.76 34.233-189.21 59.47-55.857-28.837-129.74-53.161-221.635-72.98-3.61 12.612-10.822 27.924-21.621 45.946 70.27 10.814 135.139 28.833 194.61 54.059-34.246 25.225-62.17 49.557-83.793 72.981-21.622-23.422-44.148-43.245-67.572-59.458a38171.912 38171.912 0 0 0-32.434 32.432z m48.647-251.209l13.523 43.245c14.413-1.797 39.637-5.411 75.681-10.809 124.327-18.023 203.61-31.538 237.856-40.536l-16.222-48.66c-88.29 21.626-191.909 40.536-310.838 56.76z m67.58 83.793l13.514 45.947c7.2-1.801 18.912-3.6 35.136-5.401 82.891-14.423 138.751-24.333 167.585-29.737l-16.222-45.947c-68.472 14.416-135.142 26.126-200.012 35.138zM632.29 538.707H434.968c27.025-30.645 59.459-55.87 97.308-75.68 41.445 23.424 74.78 48.648 100.014 75.68z"  horiz-adv-x="1024" />

    
    <glyph glyph-name="google" unicode="&#58983;" d="M521.752381 700.952381c97.52381 0 165.790476-43.885714 204.8-78.019048l136.533333 131.657143c-87.771429 82.895238-204.8 131.657143-341.333333 131.657143-199.92381 0-370.590476-112.152381-453.485714-277.942857l156.038095-131.657143C263.314286 613.180952 380.342857 700.952381 521.752381 700.952381z m0 0M204.8 379.12381c0 34.133333 4.87619 73.142857 19.504762 102.4L68.266667 613.180952C34.133333 544.914286 9.752381 462.019048 9.752381 379.12381c0-78.019048 19.504762-151.161905 48.761905-214.552381l156.038095 131.657142c-4.87619 24.380952-9.752381 53.638095-9.752381 82.895239z m0 0M521.752381 57.295238c-146.285714 0-268.190476 97.52381-302.32381 234.057143L58.514286 164.571429c82.895238-175.542857 258.438095-292.571429 463.238095-292.571429 136.533333 0 253.561905 43.885714 336.457143 126.780952L697.295238 115.809524c-39.009524-34.133333-97.52381-58.514286-175.542857-58.514286z m0 0M1009.371429 369.371429c0 34.133333-4.87619 58.514286-9.752381 82.895238h-482.742858v-175.542857h287.695239c-4.87619-43.885714-39.009524-117.028571-107.276191-165.790477l160.914286-117.028571c97.52381 92.647619 151.161905 219.428571 151.161905 375.466667z m0 0"  horiz-adv-x="1024" />

    
    <glyph glyph-name="hotmail" unicode="&#60232;" d="M107.52 373.76c69.12 5.12 130.56-10.24 192-40.96 102.4-48.64 202.24-97.28 309.76-138.24 66.56-25.6 130.56-48.64 202.24-53.76 17.92-2.56 38.4-5.12 33.28 23.04-2.56 20.48 0 20.48 15.36 20.48 46.08 5.12 97.28 30.72 135.68 51.2 10.24 5.12 20.48 12.8 12.8 25.6-7.68 10.24-17.92 2.56-25.6 0-33.28-17.92-66.56-35.84-102.4-46.08-25.6-7.68-33.28-2.56-35.84 28.16-5.12 432.64 5.12 422.4-5.12 432.64-125.44-112.64-248.32-222.72-371.2-335.36-23.04-20.48-35.84-23.04-61.44 0C302.08 440.32 194.56 537.6 81.92 642.56v-250.88c0-25.6 12.8-17.92 25.6-17.92zM995.84 156.15999999999997c-71.68-48.64-168.96-66.56-250.88-48.64-28.16 7.68-58.88 15.36-87.04 25.6-104.96 38.4-209.92 84.48-309.76 133.12-66.56 33.28-135.68 66.56-212.48 64-20.48-2.56-40.96-2.56-58.88-5.12-43.52-7.68-69.12-33.28-71.68-81.92-2.56-58.88 2.56-79.36 56.32-92.16 15.36-5.12 23.04-10.24 23.04-28.16v-48.64c-2.56-20.48 5.12-25.6 25.6-25.6 235.52-15.36 471.04-28.16 704-46.08 30.72-2.56 38.4 7.68 33.28 35.84-5.12 28.16-7.68 35.84 20.48 38.4 40.96 5.12 112.64 40.96 145.92 58.88 7.68 5.12-7.68 28.16-17.92 20.48z m-913.92 20.48c-5.12-15.36-51.2 5.12-58.88 23.04-15.36 28.16 7.68 79.36 35.84 94.72 17.92 10.24 28.16 7.68 25.6-15.36-2.56 0 5.12-76.8-2.56-102.4zM419.84 376.32000000000005c20.48-20.48 28.16-5.12 40.96 5.12 120.32 117.76 240.64 238.08 360.96 355.84 5.12 5.12 12.8 7.68 7.68 20.48-243.2-15.36-491.52-28.16-742.4-46.08 2.56-7.68 5.12-10.24 7.68-12.8C204.8 591.36 312.32 486.4 419.84 376.32000000000005z"  horiz-adv-x="1024" />

    
    <glyph glyph-name="tencentcloud" unicode="&#59254;" d="M839 179.52999999999997c-14.39-14.39-43.18-35.98-93.56-35.98H435.99C529.54 233.5 608.7 309.07000000000005 615.9 316.26c7.2 7.2 25.19 25.19 43.18 39.58 35.98 32.39 64.77 35.99 89.96 35.99 35.98 0 64.77-14.39 89.96-35.99 50.37-46.77 50.37-129.53 0-176.31m61.16 233.89c-35.98 39.58-89.96 64.77-147.53 64.77-50.38 0-93.56-17.99-133.14-46.78-14.39-14.39-35.98-28.79-53.98-50.37-14.39-14.39-323.85-316.65-323.85-316.65 17.99-3.6 39.58-3.6 57.57-3.6h392.22c28.79 0 50.37 0 71.97 3.6 46.78 3.6 93.56 21.59 133.14 57.57 82.77 79.16 82.77 212.3 3.6 291.46z m0 0M396.4 435.01c-39.58 28.79-79.16 43.18-125.94 43.18-57.58 0-111.55-25.19-147.53-64.77-79.16-82.76-79.16-212.3 3.6-295.07 35.98-32.38 71.97-50.37 115.15-53.97l82.76 79.16h-46.78c-46.78 3.6-75.57 17.99-93.56 35.98-50.37 50.37-50.37 129.54-3.6 179.92 25.19 25.19 53.98 35.98 89.96 35.98 21.59 0 53.97-3.6 86.36-35.98 14.39-14.39 53.98-43.18 68.36-57.57h3.6l53.98 53.97v3.6c-25.19 25.19-64.77 57.58-86.36 75.57M774.22 524.97c-39.58 107.95-143.93 183.51-262.68 183.51-140.34 0-251.88-104.35-273.47-233.89 10.79 0 21.59 3.6 35.98 3.6 14.39 0 32.38-3.6 46.78-3.6 17.99 89.96 97.15 154.72 190.71 154.72 79.16 0 147.53-46.78 179.92-115.14 0 0 3.59-3.6 3.59 0 25.2 3.6 53.99 10.8 79.17 10.8 0-3.6 0-3.6 0 0"  horiz-adv-x="1024" />

    
    <glyph glyph-name="bilibili" unicode="&#58891;" d="M208.927 300.57500000000005c2.887-21.033 5.847-42.21 8.734-64.051 17.92 13.404 35.031 26.654 52.358 39.69-2.294 2.97-49.839 21.842-61.092 24.371z m412.62 0c2.888-21.033 5.848-42.21 8.735-64.051 17.92 13.404 35.021 26.654 52.357 39.69-2.293 2.97-49.838 21.842-61.091 24.371zM512.174 895.662C229.581 895.662 0.543 666.614 0.543 384.031S229.59-127.59000000000003 512.174-127.59000000000003s511.621 229.038 511.621 511.62S794.757 895.663 512.175 895.663z m-29.03-444.395H500.1c2.888 0 4.3-0.963 4.3-4.434v-53.392c-6.819 0.369-13.854 0.584-21.186 0.963v56.863h-0.071z m-115.815 6.369c1.925 0 2.888-1.178 3.328-3.482 1.782-17.92 3.328-35.39 5.264-53.903-6.82-0.82-13.261-0.963-20.44-1.557-2.518 19.62-4.894 38.728-7.413 58.573 6.666 0.369 13.035 0.369 19.251 0.369z m-27.627-3.103c2.744 0.369 1.925-1.925 2.375-3.481 0.594-6.595 1.332-12.81 1.926-19.252 0.962-10.148 2.365-19.855 3.328-30.003v-3.922l-15.77-2.734c-3.482 18.883-6.82 37.54-10.291 56.801 6.215 0.666 12.216 2.069 18.432 2.591z m-2.888-183.87c-2.519-8.376-8.366-14.96-15.544-20.438-16.958-13.415-34.437-25.109-54.887-31.918a264.704 264.704 0 0 0-43.98-10.742c-19.477-2.888-39.322-4.301-59.167-6.216-4.065-0.594-7.987 0-12.288 0-1.925 0-2.52 0.963-2.52 2.888-0.224 8.735-0.962 17.92-1.556 27.033-0.962 11.694-2.15 23.174-3.481 34.796-1.925 16.363-3.922 32.143-5.847 48.435-1.925 17.1-4.301 34.058-6.226 51.016-1.925 16.742-3.482 33.25-5.837 49.838-2.744 18.882-5.263 37.55-8.151 56.801a509.921 509.921 0 0 1-13.036 66.355c-0.368 0.953 0.594 2.878 1.188 3.482a2986.764 2986.764 0 0 1 57.61 22.804c6.216 2.735 6.81 3.697 6.81-4.444 0-34.437 0-68.72 0.594-103.157 0.369-17.92 0.963-35.84 2.365-53.689 1.557-21.401 3.933-43.172 5.858-65.024 0-0.952 0.594-1.771 0.594-2.355 7.403 0.358 14.581 0.952 21.77 0.952 30.577 0.82 60.498-3.328 89.16-14.581 13.987-5.632 27.617-12.084 39.69-21.187 9.994-7.547 12.288-16.876 6.881-30.648z m25.846-44.584c-10.066 50.432-19.845 100.045-29.543 150.835 8.141 0.973 15.995 2.376 23.767 3.338 5.632 0.82 11.47 0.82 16.958 1.331 3.113 0.38 5.038-0.952 5.478-3.922 1.188-7.782 2.52-15.544 3.482-23.767 1.782-13.26 2.888-26.665 4.3-39.915 1.332-11.704 2.51-23.173 3.923-34.806 1.33-12.288 2.887-24.73 4.444-37.54 0.368-3.481 0.962-7.403 1.331-11.264-11.336-1.403-22.436-2.734-34.14-4.29z m83.159 14.592c-10.138 0.962-19.845 1.556-30.577 2.519-9.185 92.416-16.967 185.651-34.437 278.733 5.632 0.583 11.469 1.33 17.326 1.914 6.81 0.38 13.404 0.82 20.214 1.332 5.632 0.379 7.782-0.953 8.151-6.431l2.888-43.991c1.33-19.845 2.887-39.69 4.3-59.535 0.953-14.367 1.547-28.59 2.878-43.029 1.331-15.77 2.888-31.324 4.3-46.879 1.332-11.253 2.366-23.173 3.329-34.427 1.33-12.288 2.744-24.74 3.481-37.55l0.963-10.731c0.072-1.925-0.891-2.294-2.816-1.925z m26.808 210.75c2.52 0 3.482-0.595 3.482-3.482-0.369-7.783 0-15.995 0-23.767v-29.553c-5.847-0.594-11.11-0.963-16.364-1.331-1.556 18.882-2.887 37.918-4.444 58.204h17.326v-0.072z m2.97-228.67c-0.973 0-2.53 1.556-2.53 2.519-1.546 16.957-2.887 33.833-4.433 50.79-1.332 15.565-2.898 31.55-4.301 47.104-1.331 15.995-2.888 32.133-4.301 48.435 0 0.953 0 1.915-0.369 3.328a53.658 53.658 0 0 0 11.264 1.332c10.138 0 20.44-0.226 30.577-0.594 2.519 0 3.932-1.925 3.932-4.301 0.215-5.253 0.584-10.138 0.584-15.401 0-23.767-0.369-47.903 0-71.608 0.379-19.252 0.973-37.99 1.331-57.242 0-0.963 0-2.365 0.379-4.444-10.957 0.082-21.852-0.297-32.143 0.082z m420.167 228.516h16.958c2.888 0 4.3-0.963 4.3-4.434v-53.392c-6.82 0.369-13.854 0.584-21.196 0.963v56.863h-0.062z m-115.814 6.369c1.915 0 2.878-1.178 3.328-3.482 1.772-17.92 3.328-35.39 5.253-53.903-6.81-0.82-13.25-0.963-20.439-1.557-2.519 19.62-4.884 38.728-7.403 58.573 6.594 0.369 13.035 0.369 19.25 0.369z m-27.627-3.103c2.734 0.369 1.925-1.925 2.365-3.481 0.594-6.595 1.331-12.81 1.925-19.252 0.963-10.148 2.376-19.855 3.338-30.003v-3.922l-15.77-2.734c-3.48 18.883-6.82 37.54-10.3 56.801 6.143 0.666 12.216 2.069 18.431 2.591z m-3.113-183.726c-2.52-8.366-8.366-14.95-15.545-20.439-16.957-13.404-34.437-25.098-54.886-31.918a264.704 264.704 0 0 0-43.98-10.732c-19.477-2.887-39.323-4.3-59.168-6.226-4.075-0.593-7.987 0-12.288 0-1.925 0-2.519 0.963-2.519 2.888-0.225 8.745-0.962 17.92-1.556 27.034-0.963 11.694-2.15 23.173-3.482 34.806-1.925 16.363-3.922 32.133-5.847 48.435-1.925 17.1-4.3 34.058-6.226 51.015-1.925 16.733-3.481 33.25-5.837 49.838-2.744 18.883-5.263 37.54-8.15 56.792a509.921 509.921 0 0 1-13.036 66.355c-0.225 0.962 0.82 2.887 1.331 3.328a3055.2 3055.2 0 0 1 57.61 22.814c6.226 2.735 6.82 3.697 6.82-4.444 0-34.437 0-68.72 0.584-103.157 0.379-17.92 0.962-35.84 2.376-53.689 1.556-21.401 3.921-43.172 5.847-65.024 0-0.952 0.594-1.771 0.594-2.355 7.403 0.358 14.592 0.952 21.77 0.952 30.587 0.82 60.498-3.328 89.16-14.581 13.998-5.632 27.617-12.084 39.69-21.187 10.076-7.547 12.37-16.876 6.738-30.505z m26.07-44.728c-10.147 50.432-19.844 100.045-29.552 150.835 8.151 0.973 15.995 2.376 23.777 3.338 5.632 0.82 11.47 0.82 16.958 1.331 3.102 0.38 5.028-0.952 5.478-3.922 1.188-7.782 2.52-15.544 3.482-23.767 1.771-13.26 2.887-26.665 4.3-39.915 1.332-11.704 2.51-23.173 3.912-34.806 1.331-12.288 2.888-24.73 4.444-37.54 0.38-3.481 0.963-7.403 1.332-11.264-11.326-1.403-22.426-2.734-34.13-4.29z m83.088 14.592c-10.148 0.962-19.845 1.556-30.587 2.519-9.185 92.416-16.957 185.651-34.437 278.733 5.632 0.583 11.479 1.33 17.326 1.914 6.82 0.38 13.414 0.82 20.224 1.332 5.632 0.379 7.772-0.953 8.14-6.431l2.889-43.991c1.33-19.845 2.887-39.69 4.3-59.535 0.963-14.367 1.557-28.59 2.888-43.029 1.331-15.77 2.888-31.324 4.3-46.879 1.332-11.253 2.356-23.173 3.329-34.427 1.331-12.288 2.734-24.74 3.481-37.55l0.953-10.731c0.153-1.925-0.82-2.294-2.806-1.925z m26.88 210.75c2.519 0 3.482-0.595 3.482-3.482-0.38-7.783 0-15.995 0-23.767v-29.553c-5.858-0.594-11.11-0.963-16.374-1.331-1.546 18.882-2.888 37.918-4.434 58.204h17.326v-0.072z m2.96-228.67c-0.963 0-2.52 1.556-2.52 2.519-1.556 16.957-2.887 33.833-4.444 50.79-1.331 15.565-2.888 31.55-4.3 47.104-1.332 15.995-2.878 32.133-4.291 48.435 0 0.953 0 1.915-0.369 3.328a53.658 53.658 0 0 0 11.264 1.332c10.138 0 20.429-0.226 30.577-0.594 2.519 0 3.922-1.925 3.922-4.301 0.225-5.253 0.594-10.138 0.594-15.401 0-23.767-0.369-47.903 0-71.608 0.368-19.252 0.962-37.99 1.33-57.242 0-0.963 0-2.365 0.38-4.444-10.957 0.082-21.852-0.297-32.144 0.082z"  horiz-adv-x="1024" />

    
    <glyph glyph-name="gitHub" unicode="&#58899;" d="M524.979332 896C234.676191 896 0 661.323809 0 371.020668c0-232.068678 150.366597-428.501342 358.967656-498.035028 26.075132-5.215026 35.636014 11.299224 35.636014 25.205961 0 12.168395-0.869171 53.888607-0.869171 97.347161-146.020741-31.290159-176.441729 62.580318-176.441729 62.580318-23.467619 60.841976-58.234462 76.487055-58.234463 76.487055-47.804409 32.15933 3.476684 32.15933 3.476685 32.15933 53.019436-3.476684 80.83291-53.888607 80.83291-53.888607 46.935238-79.963739 122.553122-57.365291 152.97411-43.458554 4.345855 33.897672 18.252593 57.365291 33.028501 70.402857-116.468925 12.168395-239.022047 57.365291-239.022047 259.012982 0 57.365291 20.860106 104.300529 53.888607 140.805715-5.215026 13.037566-23.467619 66.926173 5.215027 139.067372 0 0 44.327725 13.906737 144.282399-53.888607 41.720212 11.299224 86.917108 17.383422 131.244833 17.383422s89.524621-6.084198 131.244833-17.383422C756.178839 692.613968 800.506564 678.70723 800.506564 678.70723c28.682646-72.1412 10.430053-126.029806 5.215026-139.067372 33.897672-36.505185 53.888607-83.440424 53.888607-140.805715 0-201.64769-122.553122-245.975415-239.891218-259.012982 19.121764-16.514251 35.636014-47.804409 35.636015-97.347161 0-70.402857-0.869171-126.898978-0.869172-144.282399 0-13.906737 9.560882-30.420988 35.636015-25.205961 208.601059 69.533686 358.967656 265.96635 358.967655 498.035028C1049.958663 661.323809 814.413301 896 524.979332 896zM199.040177 142.428674c-0.869171-2.607513-5.215026-3.476684-8.691711-1.738342s-6.084198 5.215026-4.345855 7.82254c0.869171 2.607513 5.215026 3.476684 8.691711 1.738342s5.215026-5.215026 4.345855-7.82254z m-6.953369 4.345856M219.900283 118.96105499999999c-2.607513-2.607513-7.82254-0.869171-10.430053 2.607514-3.476684 3.476684-4.345855 8.691711-1.738342 11.299224 2.607513 2.607513 6.953369 0.869171 10.430053-2.607514 3.476684-4.345855 4.345855-9.560882 1.738342-11.299224z m-5.215026 5.215027M240.760389 88.54006800000002c-3.476684-2.607513-8.691711 0-11.299224 4.345855-3.476684 4.345855-3.476684 10.430053 0 12.168395 3.476684 2.607513 8.691711 0 11.299224-4.345855 3.476684-4.345855 3.476684-9.560882 0-12.168395z m0 0M269.443034 58.98825099999999c-2.607513-3.476684-8.691711-2.607513-13.906737 1.738342-4.345855 4.345855-6.084198 10.430053-2.607513 13.037566 2.607513 3.476684 8.691711 2.607513 13.906737-1.738342 4.345855-3.476684 5.215026-9.560882 2.607513-13.037566z m0 0M308.555733 42.474000000000046c-0.869171-4.345855-6.953369-6.084198-13.037566-4.345855-6.084198 1.738342-9.560882 6.953369-8.691711 10.430053 0.869171 4.345855 6.953369 6.084198 13.037566 4.345855 6.084198-1.738342 9.560882-6.084198 8.691711-10.430053z m0 0M351.145116 38.997315999999955c0-4.345855-5.215026-7.82254-11.299224-7.82254-6.084198 0-11.299224 3.476684-11.299224 7.82254s5.215026 7.82254 11.299224 7.82254c6.084198 0 11.299224-3.476684 11.299224-7.82254z m0 0M391.126986 45.95068500000002c0.869171-4.345855-3.476684-8.691711-9.560882-9.560882-6.084198-0.869171-11.299224 1.738342-12.168395 6.084197-0.869171 4.345855 3.476684 8.691711 9.560881 9.560882 6.084198 0.869171 11.299224-1.738342 12.168396-6.084197z m0 0"  horiz-adv-x="1049" />

    
    <glyph glyph-name="aliyun" unicode="&#59108;" d="M746.7 610.3H561.8l16.6-70 158.3-35.7c14.4-3.4 25.4-16.1 25.4-32.2v-176.9c-1.1-16.1-11.1-28.7-25.4-32.2l-158.3-35.6-16.6-70h184.9c64.2 0 117.4 54 117.4 121.7V489.7c-1.2 66.6-53.3 120.6-117.4 120.6zM286.2 263.4c-14.9 3.5-25.5 16.8-25.4 32.2v177c1.1 16.1 11.1 28.7 25.4 32.2l158.3 35.6 16.6 70H277.3c-65.3 0-117.3-54-117.3-120.6v-209c0-66.6 53.2-121.7 117.3-121.7H461l-16.6 70-158.2 34.3zM413 416.2h198v-64.3H413z"  horiz-adv-x="1024" />

    
    <glyph glyph-name="pixabay" unicode="&#58896;" d="M0 896h1024v-1024H0zM363.162791 610.232558c-71.44186 0-184.55814-65.488372-184.55814-166.697674v-351.255814h71.441861v142.883721h154.790697s148.837209 41.674419 148.83721 190.511628-119.069767 184.55814-190.511628 184.558139z m113.116279-190.511628c-5.953488-89.302326-89.302326-107.162791-89.302326-107.16279H250.046512V449.488372s11.906977 77.395349 101.209302 89.302326c48.64 6.489302 130.976744-29.767442 125.023256-119.069768zM512 610.232558h89.302326l83.348837-119.069767 89.302325 119.069767h95.255814l-125.023255-172.651163 136.930232-196.465116h-89.302326l-95.255813 130.976744-107.162791-130.976744H494.139535l136.930232 184.55814-119.069767 184.558139z"  horiz-adv-x="1024" />

    
    <glyph glyph-name="bing" unicode="&#59337;" d="M0 384c0-282.624 229.376-512 512-512s512 229.376 512 512S794.624 896 512 896 0 666.624 0 384zM828.928 249.344l-429.056-256L230.4 105.472V732.672l166.4-45.056 6.144-422.4-156.672-150.528 393.728 214.528-105.472 48.128-79.872 166.4 374.272-112.128v-182.272z"  horiz-adv-x="1024" />

    
    <glyph glyph-name="youxiang" unicode="&#58985;" d="M505.302033 386.501246m-503.606558 0a503.606557 503.606557 0 1 1 1007.213115 0 503.606557 503.606557 0 1 1-1007.213115 0ZM303.85941 587.943869h402.885246c27.412984 0 49.806689-22.494426 50.360655-49.571672l-251.803278-141.211279-251.803279 140.640525c0.570754 27.664787 22.947672 50.142426 50.360656 50.142426z m-50.360656-103.742951v-248.999869c0-27.664787 22.947672-50.142426 50.360656-50.142426h402.885246c27.412984 0 50.360656 22.494426 50.360655 50.142426V484.200918l-245.642491-134.295082a11.817967 11.817967 0 0 0-12.321574 0l-245.642492 134.295082z"  horiz-adv-x="1024" />

    
    <glyph glyph-name="facebook" unicode="&#58892;" d="M512 384m-512 0a512 512 0 1 1 1024 0 512 512 0 1 1-1024 0ZM640.71646 363.95736h-91.360119v-334.70113H410.938001V363.95736h-65.832222V481.584655h65.832222v76.118222c0 54.432743 25.856465 139.668723 139.650469 139.668723l102.531427-0.428964v-114.177332h-74.39324c-12.202645 0-29.361189-6.096759-29.361189-32.062748v-69.227423h103.444115l-12.093123-117.517773z"  horiz-adv-x="1024" />

    
    <glyph glyph-name="jingdong" unicode="&#58942;" d="M512 384m-512 0a512 512 0 1 1 1024 0 512 512 0 1 1-1024 0ZM537.4976 332.8s1.024-19.712 71.6288-8.192c0 0-8.4992-214.3232 5.2736-284.2624 0 0-5.2736-19.8144-22.1184 48.9472-16.7936 68.7616-21.0944 85.0432-28.416 88.576-7.2704 3.584-41.0624-20.992-57.856-60.5696-16.8448-39.6288-26.4192-87.3984-26.4192-87.3984s-11.1616-9.3696-11.4176 5.888c-0.2048 15.1552 9.3184 94.3104 9.3184 94.3104s-19.456-55.5008-22.784-84.48c-3.3792-29.0816-10.1888-2.9696-8.8064 5.9392 1.3312 8.96 9.1648 48.7936-0.2048 72.6016 0 0-8.5504 4.352-64.6144-89.0368 0 0-4.7104-13.9264-10.1888-8.0896-5.376 5.8368 0.7168 14.7968 6.0928 29.696 5.376 15.0016 29.0816 76.288 36.4544 83.7632 0 0-22.272-4.4544-34.4576 2.2528-12.1856 6.656-27.0848 19.456-17.5616 68.7616 3.7888 19.8144 4.1984 0.3072 2.6624-14.2336-3.072-30.6688 8.0896-48.128 29.2864-43.008 22.272 5.2736 33.5872 24.9856 33.5872 24.9856L537.4976 332.8z m278.8864 271.0016s-25.088-25.1904-77.568-24.4736c-24.2688 0.256-39.5264 1.6896-42.6496 11.1104-4.864 14.7968 36.7616 36.608 88.832 33.6896 0 0-46.1824 24.064-191.1296 12.9536-144.9472-11.1616-342.7328-98.9184-342.7328-98.9184s1.1776-7.7824-17.92 5.632c-19.0976 13.312-42.7008 23.296-49.5104 22.2208-6.8096-1.024-19.0976 0-21.3504-28.8768L102.4 392.5504s39.7312-28.928 86.8864-11.1104c47.104 17.7664 47.2064 77.824 35.9424 97.8432 0 0 6.8096 1.1776 13.5168-10.0352 6.7584-11.0592 80.7936-53.248 106.7008-64.4608 25.9072-11.1104 166.2976-59.904 199.9872-68.3008 33.7408-8.448 73.0112-1.6896 88.7808 12.8 15.7696 14.4384 97.6896 103.424 118.0672 137.8304 0 0-253.184-41.1648-324.9664-11.1104 0 0-11.0592-5.632-16.6912-2.2016-5.632 3.3792 1.1776 23.296 6.8096 21.0944 5.632-2.2016 9.9328-7.7824 9.9328-7.7824s82.2272-30.1056 332.8 14.4384c0 0 74.24 71.168 56.2176 102.2464zM379.8528 537.7024c-25.088-1.8432-25.4464 24.832-14.9504 41.3184 7.2192 11.3664 45.4656 15.7696 44.6976-3.072-1.1264-23.9616-6.2976-36.5056-29.7472-38.2464z"  horiz-adv-x="1024" />

    
    <glyph glyph-name="Behance" unicode="&#58919;" d="M0 384C0 666.76736 229.23264 896 512 896s512-229.23264 512-512-229.23264-512-512-512S0 101.23264 0 384zM504.97024 468.3776c0 19.73248-5.1712 36.64896-15.47776 50.81088-17.18272 23.06048-46.30528 34.87744-87.47008 35.47648H238.93504v-332.93824h152.07424c17.14688 0 33.00864 1.4592 47.68256 4.46976 14.67392 3.04128 27.35616 8.58112 38.1184 16.72192a92.53888 92.53888 0 0 1 23.8848 26.19904c10.05056 15.65184 15.06304 33.36192 15.06304 53.0944 0 19.13344-4.39808 35.41504-13.1328 48.78336-8.832 13.40416-21.80608 23.18848-39.0144 29.39904 11.33568 5.69856 19.90656 12.03712 25.7536 18.944 10.43456 12.35456 15.60576 28.72832 15.60576 49.03936zM587.90912 539.14624h144.62464v-41.43616h-144.62464zM719.79008 462.9248c17.4336-7.66464 31.78496-19.82976 43.08992-36.4288 10.30656-14.63296 16.9216-31.616 19.9424-50.90304 1.7664-11.27936 2.47296-27.62752 2.18112-48.88576h-181.84192c1.09056-24.67328 9.69728-42.00448 26.1376-51.9168 9.9584-6.17984 21.93408-9.28256 35.99872-9.28256 14.80192 0 26.9056 3.76832 36.18816 11.27936 5.10464 4.08576 9.6 9.72288 13.45536 16.9472h66.62656c-1.7664-14.57152-9.856-29.42976-24.17664-44.50816-22.3488-23.92064-53.6576-35.8912-93.89056-35.8912-33.23904 0-62.55616 10.07104-87.88992 30.2848-25.46176 20.17792-38.11328 53.05856-38.11328 98.54976 0 42.67008 11.46368 75.392 34.3552 98.17088 22.9632 22.71232 52.66432 34.1504 89.23648 34.1504 21.73952 0 41.2928-3.8656 58.7008-11.56608zM604.76928 369.19296c2.37568 16.0256 8.18688 28.72832 17.40288 38.10816 9.216 9.37472 22.25152 14.06464 38.94784 14.06464 15.41632 0 28.29312-4.4032 38.7584-13.24032 10.3424-8.90368 16.18432-21.82656 17.37216-38.93248h-112.48128zM306.20672 279.51104v88.79104h83.10272c14.44864-0.12288 25.71776-2.02752 33.74592-5.63712 14.35136-6.49216 21.48352-18.37056 21.48352-35.73248 0-20.46464-7.38816-34.2784-22.19008-41.56416-8.12544-3.89632-19.5584-5.85728-34.19648-5.85728H306.20672zM306.20672 496.85504v-73.46176h82.0736c14.61248 0 26.5216 2.75456 35.70688 8.2688 9.11872 5.50912 13.71136 15.26784 13.71136 29.20448 0 15.55456-6.03648 25.78944-18.11456 30.79168-10.46528 3.456-23.7568 5.1968-39.9104 5.1968H306.20672z"  horiz-adv-x="1024" />

    
    <glyph glyph-name="angular" unicode="&#58940;" d="M512 773.12L130.6624 637.1328l58.1632-504.2176L512-46.08l323.1744 178.9952 58.1632 504.2176zM512 773.12v-90.9312 0.4096V-46.08l323.1744 178.9952 58.1632 504.2176L512 773.12zM512 682.5984L273.6128 148.0704h88.8832l47.9232 119.6032h202.3424l47.9232-119.6032H749.568L512 682.5984z m69.632-341.1968h-139.264l69.632 167.5264 69.632-167.5264z"  horiz-adv-x="1024" />

    
    <glyph glyph-name="baidu" unicode="&#58937;" d="M512 384m-512 0a512 512 0 1 1 1024 0 512 512 0 1 1-1024 0ZM429.511111 494.592c-33.564444 0-60.984889 38.798222-60.984889 86.869333 0 47.900444 27.363556 86.698667 61.041778 86.698667s60.871111-38.798222 60.871111-86.698667c0-48.071111-27.192889-86.869333-60.871111-86.869333z m145.237333-5.688889c-44.942222 5.802667-55.182222 46.535111-50.688 87.381333 3.640889 33.393778 43.52 84.593778 75.434667 77.255112 31.971556-7.281778 60.984889-49.493333 55.125333-85.902223-5.859556-36.465778-34.759111-84.593778-79.872-78.677333zM316.302222 372.394667c-60.871111-13.084444-83.512889 57.400889-76.8 90.453333 0 0 7.168 71.281778 56.604445 75.662222 39.196444 3.413333 68.096-39.537778 71.111111-64.056889 1.820444-15.928889 10.183111-88.974222-50.915556-102.058666z m368.924445 125.269333c53.703111 0 68.209778-52.451556 68.209777-69.802667 0-17.521778 7.224889-91.818667-59.562666-93.297777-66.844444-1.479111-69.688889 45.169778-69.688889 78.620444 0 35.043556 7.224889 84.48 61.041778 84.48z m-304.071111-252.188444a37.546667 37.546667 0 0 0 24.519111 21.731555h34.190222v-78.108444H407.893333s-22.186667 1.137778-29.070222 26.737777c-3.413333 11.377778 0.568889 24.519111 2.275556 29.639112z m304.071111 29.240888s52.224-40.732444 18.830222-119.409777c-33.336889-78.734222-155.420444-37.888-155.420445-37.888s-44.942222 14.506667-97.166222 2.958222c-52.337778-11.719111-97.28-7.281778-97.28-7.281778s-61.098667-1.592889-78.506666 75.662222c-17.408 77.312 60.984889 119.637333 66.787555 126.805334 5.859556 7.281778 46.478222 34.986667 72.590222 78.734222 26.168889 43.633778 104.618667 78.563556 159.744-7.395556 40.732444-58.254222 110.421333-112.184889 110.421334-112.184889z m-208.782223-117.077333V349.297778l-35.84 0.568889v-51.882667H398.222222s-42.268444-3.470222-57.059555-51.370667c-5.12-31.971556 4.551111-50.801778 6.257777-54.784 1.706667-3.982222 15.36-27.477333 49.664-34.247111h79.246223z m147.797334 0.568889v135.168h-39.424v-101.546667h-37.660445s-12.003556 1.706667-14.279111 11.377778v90.794667l-36.977778-0.568889v-101.034667s1.592889-25.088 36.977778-34.190222h91.363556z"  horiz-adv-x="1025" />

    
    <glyph glyph-name="nuxt" unicode="&#59205;" d="M448.224 713.408L64 54.591999999999985h768.448L448.224 713.408zM318.944 54.591999999999985H960L639.456 604.192 318.944 54.591999999999985zM318.944 54.591999999999985h513.504L575.68 494.848 318.944 54.591999999999985z"  horiz-adv-x="1024" />

    
    <glyph glyph-name="weibo" unicode="&#59070;" d="M464.712259 407.894335c-102.515214-6.825164-184.529889-58.032678-184.529889-126.29684s82.014676-116.052832 184.529889-112.633988 184.529889 64.845318 184.52989 136.503277c0 64.882888-82.039722 105.883964-184.52989 102.427551zM536.507974 237.277761c-30.757069-41.001076-95.69005-58.070248-153.772821-27.363271-27.338225 13.662851-27.338225 44.38235-27.338225 44.38235s-13.662851 95.564818 88.839839 105.808825C546.751981 373.781039 567.302612 274.784855 536.507974 237.277761zM464.762352 298.64162c-6.837687-6.825164-6.837687-13.650328-3.418844-20.488015 3.368751-3.393797 10.193914-3.393797 17.031602 0 6.837687 6.837687 10.256531 13.662851 6.837687 20.488015-3.368751 3.431367-13.625281 6.85021-20.450445 0zM420.317386 288.422659c-20.488015-3.40632-34.163389-17.106741-34.163389-34.125819 0-13.662851 13.675374-27.300656 34.163389-23.906859 17.081695 0 34.175912 13.700421 37.569709 30.732023 0.025046 17.056648-17.069171 30.706976-37.569709 27.300655zM512.551022 896C229.475785 896 0 666.824773 0 384s229.475785-512 512.551022-512 512.551022 229.175227 512.551023 511.949907S795.62626 896 512.551022 896z m228.974856-634.928089c-44.444966-88.752177-181.136092-129.70316-283.638783-122.877997-99.071324 6.825164-222.112122 37.569709-235.787496 153.559926 0 0-6.825164 51.207514 44.41992 119.471676 0 0 75.139419 98.933568 160.597984 129.690637 88.914979 27.350748 99.09637-20.475492 99.09637-47.78867-6.837687-27.300656-13.662851-40.950983 17.094218-30.706976 0 0 85.420996 37.569709 119.596909 3.40632 27.325702-27.313179 3.40632-64.845318 3.40632-64.845318s-10.244007-13.575188 13.700421-16.981509c27.338225-3.418844 102.502691-40.950983 61.514137-122.928089z m10.244008 198.029938c-3.418844-13.662851-10.256531-20.488015-23.931905-20.488015-10.244007 0-20.500538 10.244007-20.500538 20.488015v10.244008c0 30.706976-23.944428 58.020155-58.095294 58.020154-10.269054 0-20.513061 10.244007-20.513062 20.475492s10.244007 20.475492 20.513062 20.475491c58.082771 0 102.502691-44.38235 102.50269-98.933568v-10.244007z m78.583308-17.069171v-6.88778c-3.40632-10.244007-13.662851-17.069171-27.325702-13.637805a23.343313 23.343313 0 0 0-23.919381 23.881812v3.468937c3.40632 6.862734 3.40632 17.056648 3.40632 23.881812 0 71.695529-61.489091 129.715683-133.234713 129.715683a23.355836 23.355836 0 0 0-23.931905 23.894335c0 13.637805 10.244007 23.794149 23.956952 23.894335 102.502691 0 184.504843-81.927013 184.504843-180.89815-0.03757-10.281577-3.456413-17.081695-3.456414-27.313179z"  horiz-adv-x="1025" />

    
    <glyph glyph-name="php" unicode="&#58893;" d="M0 896h1024v-1024H0zM292.864 332.8a80.64 80.64 0 0 1 49.408 12.288 65.536 65.536 0 0 1 21.504 41.216 44.288 44.288 0 0 1-4.096 37.632 55.552 55.552 0 0 1-40.448 11.264h-35.584l-19.712-102.4z m-116.48-124.672a5.376 5.376 0 0 0-4.352 2.048 5.888 5.888 0 0 0 0 4.608l51.2 269.312a5.376 5.376 0 0 0 5.376 4.352h112.896A98.56 98.56 0 0 0 419.84 460.8a88.576 88.576 0 0 0 15.36-79.36 123.648 123.648 0 0 0-13.568-37.888 129.536 129.536 0 0 0-25.6-31.232 108.544 108.544 0 0 0-41.216-25.6 184.832 184.832 0 0 0-56.32-7.168H253.44l-13.056-67.072a5.376 5.376 0 0 0-5.376-4.352zM569.856 279.808a5.376 5.376 0 0 0-4.352 1.792 5.12 5.12 0 0 0 0 4.608l23.04 119.296a28.928 28.928 0 0 1-1.536 22.784c-2.048 2.304-7.68 5.632-25.6 5.632h-42.496l-29.184-149.76a5.376 5.376 0 0 0-5.376-4.352h-58.112a5.376 5.376 0 0 0-4.352 1.792 6.144 6.144 0 0 0-1.28 4.608l52.48 269.568a5.376 5.376 0 0 0 5.376 4.352H537.6a5.376 5.376 0 0 0 4.352-2.048 5.888 5.888 0 0 0 1.28-4.608l-12.8-65.024h45.312a104.192 104.192 0 0 0 71.168-18.432 61.696 61.696 0 0 0 12.8-60.416l-24.32-125.44a5.376 5.376 0 0 0-5.376-4.352zM750.848 332.8a80.64 80.64 0 0 1 49.408 12.288 65.536 65.536 0 0 1 21.504 41.216 44.288 44.288 0 0 1-4.096 37.632 55.552 55.552 0 0 1-40.448 11.264H742.4l-19.712-102.4z m-116.48-125.184a5.376 5.376 0 0 0-4.352 2.048 4.864 4.864 0 0 0 0 4.608l51.2 269.312a5.376 5.376 0 0 0 5.376 4.352h112.896A99.584 99.584 0 0 0 878.08 460.8a89.344 89.344 0 0 0 15.104-79.36 123.648 123.648 0 0 0-13.568-37.888 129.536 129.536 0 0 0-25.6-31.232 108.544 108.544 0 0 0-41.216-25.6 184.832 184.832 0 0 0-56.32-7.168h-45.056l-13.056-67.328a5.376 5.376 0 0 0-5.376-4.352z"  horiz-adv-x="1024" />

    
    <glyph glyph-name="CSS" unicode="&#59111;" d="M800 832h-160l256-256V736v-768c0-19.2-12.8-32-32-32H160c-19.2 0-32 12.8-32 32V800c0 19.2 12.8 32 32 32h640zM377.6 425.6h25.6v-25.6H384c-12.8 0-19.2-6.4-19.2-19.2v-64c0-19.2-9.6-32-28.8-38.4 19.2-6.4 28.8-19.2 28.8-38.4v-64c0-12.8 6.4-19.2 19.2-19.2h19.2v-25.6h-25.6c-12.8 0-25.6 3.2-32 12.8-6.4 9.6-9.6 19.2-9.6 35.2v60.8c0 9.6-3.2 16-6.4 19.2-3.2 6.4-12.8 6.4-25.6 9.6V288c12.8 0 19.2 3.2 25.6 9.6 3.2 3.2 6.4 12.8 6.4 19.2v60.8c0 12.8 3.2 25.6 9.6 35.2 6.4 6.4 16 12.8 32 12.8z m246.4 0h25.6c12.8 0 25.6-3.2 32-12.8 6.4-9.6 9.6-19.2 9.6-35.2v-60.8c0-9.6 3.2-16 6.4-19.2 3.2-3.2 12.8-6.4 22.4-6.4v-25.6c-12.8 0-19.2-3.2-25.6-9.6-3.2-3.2-6.4-9.6-6.4-19.2v-60.8c0-12.8-3.2-25.6-9.6-35.2-6.4-9.6-19.2-12.8-32-12.8h-25.6v25.6h19.2c12.8 0 19.2 6.4 19.2 19.2v64c0 19.2 9.6 32 28.8 38.4-19.2 6.4-28.8 19.2-28.8 38.4v64c0 12.8-6.4 19.2-19.2 19.2h-19.2v28.8zM640 832l256-256h-224c-19.2 0-32 12.8-32 32V832z"  horiz-adv-x="1024" />

    
    <glyph glyph-name="pinterest" unicode="&#58894;" d="M511.950817 896A511.950817 511.950817 0 1 0 0 384 512 512 0 0 0 511.950817 896zM527.443612 671.82171c-180.404995 0-271.296061-125.221134-271.296062-229.637656a140.664745 140.664745 0 0 1 77.759078-140.418828 13.131988 13.131988 0 0 1 18.984823 9.19731l7.721805 29.510086a17.460134 17.460134 0 0 1-5.459366 20.460327 103.67877 103.67877 0 0 0-25.03439 72.102978 177.060519 177.060519 0 0 0 186.897215 176.076849c101.957349 0 157.977329-60.298943 157.977329-140.861479 0-105.990394-48.445725-195.455139-120.401153-195.455139a57.446302 57.446302 0 0 0-59.905475 70.824207 768.737752 768.737752 0 0 1 33.543132 130.434582 49.872046 49.872046 0 0 1-51.249184 55.183862c-40.625552 0-73.234198-40.674736-73.234198-95.170029a137.713737 137.713737 0 0 1 12.148319-58.184054l-48.839193-200.324303a400.205956 400.205956 0 0 1-1.13122-139.681076 4.918348 4.918348 0 0 1 9.000576-2.11489 389.680692 389.680692 0 0 1 68.561768 120.35197c4.67243 16.328915 26.706628 101.072046 26.706628 101.072046a109.728338 109.728338 0 0 1 92.710855-45.839001c122.024207 0 204.8 107.760999 204.8 251.917771 0.098367 108.990586-95.268396 210.554467-240.261287 210.554467z"  horiz-adv-x="1024" />

    
    <glyph glyph-name="zhongduan" unicode="&#59518;" d="M1137.493333 867.498667c0 16.554667-11.946667 28.501333-31.175111 28.501333H22.983111C2.503111 896 0.568889 888.376889 0.568889 868.920889v-929.109333c0-42.154667 10.524444-53.077333 38.798222-53.077334 74.183111 0 1014.328889 0.227556 1069.852445 0 22.812444 0 28.16 17.521778 28.16 40.163556 0.113778 263.168 0.113778 883.427556 0.113777 940.600889z m-712.817777-49.720889c25.486222 0.227556 46.933333-22.641778 46.819555-49.948445-0.227556-26.965333-21.105778-48.64-46.648889-48.412444-25.6 0.227556-46.08 21.845333-46.08 48.924444 0 26.794667 20.593778 49.265778 45.852445 49.493334h0.056889z m-142.677334-0.284445c25.486222 0.227556 46.250667-21.617778 46.478222-48.981333 0.113778-27.306667-20.252444-49.208889-45.852444-49.379556-25.884444-0.170667-46.08 21.048889-46.535111 48.583112 0 27.534222 20.650667 49.891556 45.909333 49.891555v-0.113778z m-145.635555 0c25.486222 0.625778 46.933333-22.186667 46.933333-49.493333-0.170667-27.022222-20.536889-48.469333-46.08-48.64-25.429333-0.227556-46.023111 21.447111-46.193778 48.355556-0.341333 26.737778 20.195556 49.265778 45.283556 49.777777h0.056889zM1078.158222-11.377778c0-28.444444-9.671111-39.139556-35.043555-39.139555H85.105778c-26.567111 0-24.917333 10.353778-24.917334 39.708444V673.166222c0 18.432 2.901333 20.48 17.92 20.48 163.498667 0.227556 327.68 0 490.951112 0 165.034667 0 331.093333-0.170667 496.071111 0 10.24 0 13.767111-2.275556 13.767111-15.132444-0.739556-226.986667-0.568889-462.848-0.568889-689.948445h-0.170667zM845.141333 133.290667c11.207111 0 13.539556-1.763556 13.539556-7.224889l-0.113778-47.502222c0-6.371556-2.275556-7.964444-7.736889-7.964445h-280.917333c-7.907556 0-8.760889 3.527111-8.760889 9.784889 0 5.802667-0.170667 35.84 0 44.373333 0 6.769778 1.194667 8.533333 11.662222 8.533334 35.498667 0.170667 238.023111 0.170667 272.384 0zM452.664889 324.209778C407.893333 360.903111 298.325333 446.407111 273.635556 466.773333c-6.030222 4.835556-6.997333 8.931556-5.404445 13.482667a464.213333 464.213333 0 0 0 22.698667 34.474667c6.200889 8.362667 10.24 7.054222 19.399111-0.568889 11.377778-8.988444 184.206222-145.863111 204.003555-163.043556 19.114667-17.123556 16.213333-38.058667-5.859555-58.936889-27.306667-23.267556-178.346667-146.432-198.371556-163.043555-8.590222-6.371556-11.832889-10.069333-21.048889 0.227555-4.437333 6.257778-17.237333 22.243556-21.276444 27.875556-6.997333 9.784889-2.218667 14.506667 6.599111 23.096889 24.974222 21.617778 131.015111 103.594667 178.346667 143.872z"  horiz-adv-x="1137" />

    
    <glyph glyph-name="iconfont" unicode="&#58897;" d="M546.368 754.615c-5.099 5.25-4.062 13.343-2.823 26.681 1.665 17.962-33.868-8.208-55.655-25.83-176.357-12.413-315.576-159.406-315.576-338.924 0-187.656 152.124-339.78 339.78-339.78s339.78 152.124 339.78 339.78c0.004 176.087-133.945 320.889-305.506 338.073zM820.57 395.003c-2.099 44.066-11.937 84.195-29.512 120.393-17.571 36.199-40.392 67.151-68.459 92.852-28.068 25.706-60.197 45.642-96.395 59.806-33.411 13.076-68.386 20.099-104.925 21.106-6.211-5.916-11.887-15.759 1.374-26.542 21.357-17.369-10.443-28.459-27.224-23.94 17.606-2.555 48.79 6.625 18.682 24.974-13.35 8.243-9.904 18.976-5.727 25.605-37.5-0.453-73.768-7.767-108.809-21.989-36.199-14.69-68.328-35.145-96.395-61.378-28.068-26.228-51.016-57.312-68.854-93.247s-28.068-75.15-30.689-117.641c-2.099-36.199 1.444-69.772 10.625-100.724 9.184-30.952 22.426-58.756 39.741-83.413 17.311-24.656 38.165-45.77 62.559-63.345s50.757-31.084 79.084-40.523c5.246-1.576 11.407-4.201 18.492-7.868 7.082-3.674 13.904-8.003 20.459-12.986a216.9 216.9 0 0 0 18.496-15.735c5.769-5.51 10.23-10.625 13.378-15.344 7.341-12.065 13.114-22.953 17.311-32.66a2738.81 2738.81 0 0 1 11.016-25.183c3.148-7.082 6.032-12.588 8.658-16.525 2.621-3.934 6.029-5.897 10.23-5.897 3.674 0 7.082 2.23 10.23 6.687 3.148 4.46 6.296 10.489 9.444 18.101 3.148 7.604 6.818 16.13 11.016 25.57 4.193 9.444 9.44 18.887 15.736 28.331 7.345 11.016 17.443 21.772 30.294 32.261 12.851 10.497 24.788 17.838 35.804 22.035 28.327 10.497 54.819 24.265 79.475 41.317 24.656 17.048 45.774 37.507 63.345 61.374 17.575 23.87 31.084 51.152 40.527 81.841 9.437 30.684 13.107 64.912 11.013 102.687z m-456.271-94.607c-3.341-1.417-7.19-2.517-11.55-3.303s-9.045-1.181-14.055-1.181-9.695 0.391-14.055 1.181c-4.36 0.786-8.208 1.89-11.55 3.303-3.341 1.413-5.936 3.047-7.79 4.894 25.109-4.05 42.908-3.605 66.794 0-1.858-1.847-4.456-3.481-7.794-4.894z m69.114 66.988c-5.246-11.074-12.46-20.85-21.64-29.326-9.184-8.479-19.936-15.077-32.265-19.785-12.324-4.712-25.57-7.07-39.738-7.07-14.167 0-27.409 2.354-39.741 7.07-12.324 4.712-23.212 11.306-32.656 19.785-9.444 8.48-16.789 18.252-22.035 29.326-5.246 11.07-7.868 22.964-7.868 35.684s2.621 24.614 7.868 35.687c5.246 11.074 12.592 20.73 22.035 28.974 9.444 8.243 20.328 14.841 32.656 19.785 12.328 4.948 25.574 7.419 39.741 7.419 14.164 0 27.409-2.474 39.738-7.419 12.328-4.944 23.084-11.542 32.265-19.785 9.176-8.243 16.394-17.9 21.64-28.974 5.246-11.074 7.868-22.968 7.868-35.687-0.001-12.719-2.622-24.614-7.868-35.684z m78.309-121.117a833.874 833.874 0 0 1-2.215-16.889c-0.736-6.091-3.508-10.245-8.305-12.46-2.215-1.107-4.894-1.661-8.03-1.661-3.14 0-6.091 0.554-8.863 1.661-2.769 1.111-5.076 2.954-6.923 5.537-1.847 2.586-2.769 5.909-2.769 9.97 0 4.43 0.925 8.952 2.769 13.567 1.847 4.615 4.155 8.863 6.923 12.739 2.769 3.876 5.905 7.105 9.417 9.691 3.508 2.583 6.919 4.244 10.245 4.983 2.583 0.368 4.429-0.372 5.537-2.215 1.111-1.847 1.94-4.155 2.493-6.919 0.554-2.768 0.739-5.816 0.554-9.138-0.186-3.329-0.465-6.28-0.833-8.866z m43.47-23.813c-2.029-2.583-4.429-4.429-7.198-5.537a22.921 22.921 0 0 0-8.584-1.661c-2.951 0-5.537 0.554-7.752 1.661-4.801 2.215-7.752 6.369-8.859 12.46-1.111 6.091-1.847 11.72-2.215 16.889-0.372 2.583-0.554 5.537-0.554 8.863 0 3.322 0.186 6.365 0.554 9.138 0.372 2.768 1.2 5.076 2.49 6.919 1.293 1.847 3.233 2.586 5.816 2.215 3.326-0.74 6.737-2.401 10.245-4.983 3.508-2.586 6.644-5.816 9.413-9.691 2.768-3.876 5.076-8.123 6.923-12.739 1.847-4.611 2.768-9.138 2.768-13.567-0.003-4.058-1.014-7.38-3.047-9.967z m168.22 77.942c-3.341-1.417-7.19-2.517-11.55-3.303s-9.045-1.181-14.055-1.181-9.695 0.391-14.055 1.181c-4.36 0.786-8.208 1.89-11.55 3.303-3.341 1.417-5.936 3.047-7.79 4.894 25.109-4.05 42.908-3.605 66.794 0-1.859-1.847-4.457-3.481-7.794-4.894z m61.745 66.988c-5.25-11.074-12.592-20.85-22.031-29.326-9.444-8.479-20.328-15.077-32.66-19.785-12.324-4.712-25.57-7.07-39.734-7.07s-27.409 2.354-39.741 7.07c-12.324 4.712-23.212 11.306-32.656 19.785-9.444 8.48-16.785 18.252-22.031 29.326-5.246 11.07-7.868 22.964-7.868 35.684s2.621 24.614 7.868 35.687c5.246 11.074 12.588 20.85 22.031 29.326 9.444 8.479 20.328 15.077 32.656 19.785 12.328 4.712 25.574 7.066 39.741 7.066s27.409-2.354 39.734-7.066c12.328-4.712 23.216-11.306 32.66-19.785 9.44-8.48 16.785-18.252 22.031-29.326 5.246-11.074 7.868-22.968 7.868-35.687 0-12.719-2.621-24.614-7.868-35.684z"  horiz-adv-x="1024" />

    
    <glyph glyph-name="translate" unicode="&#59033;" d="M958.136 704h-432.64l-45.03-174.2-16.166-114.484 86.658-241.69 13.914-293.278h393.266c36.368 0 65.864 29.496 65.864 65.864V638.136C1024 674.504 994.504 704 958.136 704zM737.392 64l-172.522-183.652L503.764 64l24.932 66.958zM939.13 407.652v41.74h-158.608v58.434h-41.74v-58.434H595.84v-41.74h231.78c-12.892-27.144-35.242-70.43-65.956-116.07-28.264 35.298-46.124 59.862-46.336 60.154l-12.258 16.89-33.784-24.51 12.254-16.89c0.954-1.316 21.752-29.926 54.676-70.6-22.444-27.498-63.616-72.212-85.31-93.904l29.512-29.512c18.724 18.724 57.548 60.428 82.852 90.654 32.918-39.106 65.046-74.388 95.708-105.052l14.756-14.756 29.516 29.51-14.756 14.756C856.816 180 823.456 216.85000000000002 789.2 257.91999999999996c44.266 63.646 72.96 123.912 84.4 149.732h65.53zM698.658 180.95399999999995L737.392 64H65.864C29.468 64 0 93.49599999999998 0 129.86400000000003V821.788C0 858.156 29.468 887.652 65.864 887.652h398.832L525.496 704l91.214-275.478 81.948-247.568zM298.602 321.25199999999995c-85.54 0-155.13 69.59-155.13 155.13s69.59 155.13 155.13 155.13c41.408 0 80.364-16.13 109.69-45.424l-29.498-29.532c-21.446 21.42-49.922 33.216-80.194 33.216-62.526 0-113.392-50.866-113.392-113.392s50.866-113.392 113.392-113.392c55.396 0 101.64 39.934 111.466 92.522h-111.462v41.74h155.13v-20.87c-0.002-85.538-69.592-155.128-155.132-155.128z"  horiz-adv-x="1024" />

    
    <glyph glyph-name="microsoft" unicode="&#59057;" d="M512 384m-480 0a480 480 0 1 1 960 0 480 480 0 1 1-960 0ZM280.01874173 396.90257664v135.30030722l154.65417219 34.02391788v-167.02650595l-154.65417219-2.29771915z m438.20155015 231.98125827v-225.52996993l-257.78641158-3.88844776v172.41730852l257.78641158 57.00110917zM280.01874173 371.09742336l154.65417219-2.29771915v-175.55457887l-154.65417219 29.64941415v148.20288387z m438.20155015-6.45128834v-225.52996993l-257.78641158 49.26840055V368.53458278000005l257.78641158-3.88844776z"  horiz-adv-x="1024" />

    
    <glyph glyph-name="gmail" unicode="&#59252;" d="M511.550395 383.550395m-511.550395 0a511.550395 511.550395 0 1 1 1023.10079 0 511.550395 511.550395 0 1 1-1023.10079 0ZM895.213192 127.975022v511.550395c0 7.992975-1.998244 15.386477-5.195434 22.080593L509.9518 357.972875 147.370475 597.16265l491.567958-520.342668h205.219631c28.175237 0 51.055127 22.879891 51.055128 51.15504M147.370475 597.16265l626.44941-653.026051c45.559957 27.276027 86.523954 61.346083 121.493219 100.911308V610.151234L509.9518 357.972875 147.370475 597.16265zM844.058152 76.819982h-51.15504V639.525417c0 28.275149 22.879891 51.15504 51.15504 51.15504 28.275149 0 51.15504-22.879891 51.15504-51.15504v-511.550395c0-28.275149-22.879891-51.15504-51.15504-51.15504M511.550395 436.403942l299.536735 242.786613c10.690604 8.69236 24.378574 12.688848 38.066544 11.190165 13.68797-1.498683 26.176993-8.492536 34.669528-19.382964 17.884281-22.680066 14.287443-55.551176-8.092887-73.835106L511.550395 301.922139 147.370475 597.16265c-22.38033 18.28393-25.977169 51.15504-8.092887 73.835106 8.492536 10.790516 20.981559 17.784369 34.669529 19.382964 13.68797 1.498683 27.375939-2.497805 38.066543-11.190165L511.550395 436.403942z m0 0M230.197678 76.819982h-51.15504c-28.275149 0-51.15504 22.879891-51.155039 51.15504v511.550395c0 28.275149 22.879891 51.15504 51.155039 51.15504 28.275149 0 51.15504-22.879891 51.15504-51.15504v-562.705435z m0 0"  horiz-adv-x="1024" />

    
    <glyph glyph-name="zhanku" unicode="&#58900;" d="M791.3-128H232.7C104.7-128 0-23.299999999999955 0 104.70000000000005V663.2C0 791.3 104.7 896 232.7 896h558.5c128 0 232.7-104.7 232.7-232.7v-558.5c0.1-128.1-104.6-232.8-232.6-232.8zM755.5 405.5c56.3 64.8 90.5 149.4 90.5 242 0 15.8-1.1 31.4-3 46.7-56.4-72.4-139.2-123.2-234-138.1 12.5 31.4 19.6 65.6 19.6 101.5 0 25.2-3.5 49.5-9.8 72.7-40.4-77.5-116.8-133.1-206.9-145-139.7-12.7-249.2-130.1-249.2-273.1 0-151.5 122.8-274.3 274.3-274.3 135.6 0 248.1 98.4 270.3 227.6 71.9 29.9 128.3 89.2 154 163.2-32.5-14.4-68.2-22.5-105.8-23.2zM543.1 135.70000000000005H339.9c-19.2 2.9-28.6 12.8-28.4 29.5l-0.1 36.9c0 18.4 8 32.2 16.5 41.4l121.6 128.9H330.9c-11 0-18.8 9.4-19.6 23.7-1.7 28.6 3 73.1 25.1 83.8 4.1 0.5 3.4-4.2 2.6-5.9-3.1-6.6 1.4-11.9 9.6-12.4l149.4 0.2c32.3 0 53.1-0.5 63.9 3.3 5.9 2 8.8 0.4 7.5-5.5-2.6-12.2-1.4-24.4-1.4-36.8 0-38 0.3-52.5-30.3-83.1l-103.2-113h114.6c11 0 10 14.8 8.5 23.7-0.5 3 3.2 4.8 5.2 2.5 5.3-5.9 11.8-20.5 11.8-56.9v-24.4c2.3-23.3-11.7-32.2-31.5-35.9z"  horiz-adv-x="1024" />

    
    <glyph glyph-name="youku" unicode="&#58912;" d="M380.928 443.392c-8.192 4.096-18.432 8.192-28.672 8.192-8.192 0-14.336-2.048-22.528-4.096-6.144-2.048-12.288-8.192-16.384-12.288-4.096-6.144-8.192-12.288-10.24-20.48-2.048-8.192-4.096-18.432-4.096-28.672 0-10.24 2.048-20.48 4.096-28.672 2.048-8.192 6.144-16.384 12.288-20.48 6.144-6.144 10.24-10.24 18.432-12.288s14.336-4.096 22.528-4.096c10.24 0 18.432 2.048 26.624 8.192s14.336 12.288 20.48 22.528c4.096 10.24 6.144 22.528 6.144 36.864s-2.048 24.576-8.192 34.816c-4.096 6.144-12.288 14.336-20.48 20.48zM512 896C229.376 896 0 666.624 0 384s229.376-512 512-512 512 229.376 512 512S794.624 896 512 896zM129.024 246.784c0-6.144-18.432-12.288-28.672-2.048-10.24 8.192-4.096 24.576-4.096 24.576L143.36 343.03999999999996l-57.344 86.016c-6.144 8.192-8.192 14.336-10.24 18.432-2.048 4.096-4.096 8.192-4.096 12.288 0 6.144 2.048 10.24 6.144 14.336 4.096 4.096 10.24 6.144 16.384 6.144 6.144 0 12.288-2.048 14.336-6.144s8.192-10.24 16.384-22.528l45.056-71.68 45.056 71.68c2.048 4.096 4.096 8.192 6.144 10.24 2.048 2.048 4.096 6.144 6.144 8.192 2.048 2.048 4.096 4.096 8.192 6.144 2.048 2.048 6.144 2.048 10.24 2.048 6.144 0 12.288-2.048 16.384-6.144 4.096-4.096 6.144-8.192 6.144-14.336 0-4.096-2.048-8.192-4.096-12.288s-6.144-10.24-10.24-16.384l-124.928-182.272z m313.344 98.304c-4.096-12.288-10.24-22.528-18.432-30.72s-18.432-16.384-28.672-20.48c-12.288-4.096-24.576-8.192-40.96-8.192-14.336 0-28.672 2.048-40.96 6.144-12.288 4.096-22.528 10.24-30.72 20.48-8.192 8.192-14.336 18.432-18.432 30.72-4.096 12.288-6.144 24.576-6.144 38.912s2.048 28.672 6.144 38.912c4.096 12.288 10.24 22.528 18.432 30.72 8.192 8.192 18.432 14.336 28.672 20.48 12.288 4.096 24.576 6.144 38.912 8.192 20.48 0 36.864-4.096 51.2-10.24 14.336-8.192 24.576-18.432 32.768-32.768 8.192-14.336 12.288-30.72 12.288-51.2 2.048-14.336 0-28.672-4.096-40.96z m176.128 22.528c0-14.336-2.048-26.624-4.096-36.864s-8.192-18.432-16.384-26.624c-6.144-6.144-14.336-10.24-24.576-14.336s-20.48-4.096-32.768-4.096c-14.336 0-26.624 2.048-38.912 4.096-10.24 4.096-20.48 8.192-26.624 14.336s-12.288 14.336-14.336 24.576c-4.096 10.24-4.096 22.528-4.096 36.864v90.112c0 8.192 2.048 14.336 6.144 16.384s8.192 6.144 14.336 6.144c6.144 0 10.24-2.048 14.336-6.144 4.096-4.096 6.144-10.24 6.144-16.384V363.52c0-10.24 2.048-18.432 4.096-26.624 2.048-6.144 6.144-12.288 12.288-16.384s14.336-6.144 26.624-6.144c14.336 0 26.624 4.096 32.768 12.288 6.144 8.192 10.24 20.48 10.24 36.864v92.16c0 8.192 2.048 14.336 6.144 16.384s8.192 6.144 14.336 6.144c6.144 0 10.24-2.048 14.336-6.144 4.096-4.096 6.144-10.24 6.144-16.384v-88.064z m172.032-77.824c-4.096-4.096-8.192-4.096-14.336-4.096-6.144 0-10.24 2.048-12.288 4.096l-8.192 8.192c-2.048 4.096-4.096 8.192-6.144 10.24l-47.104 69.632-32.768-30.72v-38.912c0-8.192-2.048-14.336-6.144-18.432-4.096-4.096-8.192-6.144-14.336-6.144-4.096 0-6.144 0-10.24 2.048s-6.144 4.096-6.144 6.144c-2.048 2.048-2.048 6.144-2.048 8.192v153.6c0 8.192 2.048 14.336 6.144 16.384s8.192 6.144 14.336 6.144c6.144 0 10.24-2.048 14.336-6.144 4.096-4.096 6.144-10.24 6.144-16.384v-65.536l77.824 77.824c4.096 4.096 6.144 6.144 10.24 8.192 2.048 2.048 6.144 2.048 10.24 2.048 6.144 0 10.24-2.048 14.336-4.096s6.144-6.144 6.144-12.288-2.048-10.24-8.192-16.384l-47.104-43.008 55.296-75.776c4.096-6.144 6.144-10.24 8.192-14.336 2.048-4.096 2.048-8.192 2.048-12.288-4.096-2.048-6.144-6.144-10.24-8.192z m147.456 16.384c-6.144-6.144-14.336-10.24-24.576-14.336-10.24-2.048-20.48-4.096-32.768-4.096-14.336 0-28.672 2.048-38.912 4.096s-20.48 8.192-26.624 14.336c-6.144 6.144-12.288 14.336-14.336 24.576-4.096 10.24-6.144 22.528-6.144 36.864l-2.048 90.112c0 8.192 2.048 14.336 4.096 16.384s8.192 6.144 14.336 6.144c6.144 0 10.24-2.048 14.336-6.144 4.096-4.096 6.144-10.24 6.144-16.384l2.048-92.16c0-10.24 2.048-18.432 4.096-26.624 2.048-6.144 6.144-12.288 12.288-16.384 6.144-4.096 14.336-6.144 26.624-6.144 14.336 0 26.624 4.096 32.768 12.288s8.192 20.48 8.192 36.864l-2.048 92.16c0 8.192 2.048 14.336 4.096 18.432 4.096 4.096 8.192 6.144 14.336 6.144 6.144 0 10.24-2.048 14.336-6.144 4.096-4.096 6.144-10.24 6.144-16.384l2.048-90.112c0-14.336 0-26.624-4.096-36.864-2.048-10.24-6.144-20.48-14.336-26.624z"  horiz-adv-x="1024" />

    
    <glyph glyph-name="Markdown" unicode="&#59361;" d="M896 42.666667c0-46.933333-38.4-85.333333-85.333333-85.333334H213.333333c-46.933333 0-85.333333 38.4-85.333333 85.333334V725.333333c0 46.933333 38.4 85.333333 85.333333 85.333334h426.666667l256-256v-512zM337.066667 170.666667v166.4L409.6 170.666667h34.133333l72.533334 166.4V170.666667h42.666666v243.2H512l-85.333333-192-85.333334 192H294.4V170.666667zM682.666667 221.866667l25.6 25.6c8.533333 8.533333 21.333333 8.533333 29.866666 0s8.533333-21.333333 0-29.866667l-59.733333-59.733333c-8.533333-8.533333-21.333333-8.533333-29.866667 0l-59.733333 59.733333c-8.533333 8.533333-8.533333 21.333333 0 29.866667s21.333333 8.533333 29.866667 0l25.6-25.6v200.533333c0 12.8 8.533333 21.333333 21.333333 21.333333s21.333333-8.533333 21.333333-21.333333v-200.533333zM640 810.666667l256-256h-170.666667c-46.933333 0-85.333333 38.4-85.333333 85.333333V810.666667z"  horiz-adv-x="1024" />

    
    </font>
</defs>
</svg>
